<?xml version="1.0" encoding="utf-8"?>
<!-- Generator: Adobe Illustrator 23.1.1, SVG Export Plug-In . SVG Version: 6.00 Build 0)  -->
<svg version="1.1" xmlns="http://www.w3.org/2000/svg" xmlns:xlink="http://www.w3.org/1999/xlink" x="0px" y="0px"
	 viewBox="0 0 1920 1920" style="enable-background:new 0 0 1920 1920;" xml:space="preserve">
<style type="text/css">
	.st0{opacity:0.88;}
	.st1{fill:#C84270;}
</style>
<g id="Layer_1">
	<path class="st1" d="M1567.7,1486.23l-15.09-26.13H692.4l821.11-67.72l-14.45-25.03l-833.37,68.74l793.68-137.47l-13.92-24.1
		l-803.11,139.1l762.96-208.66l-13.51-23.39l-769.54,210.45l729.03-280.61l-13.23-22.91l-732.85,282.08l692.14-352.6l-13.08-22.66
		l-693.35,353.21l652.56-423.85l-13.08-22.66l-651.42,423.11l610.7-493.63l-13.23-22.91l-607.54,491.07l567.04-561.22l-13.51-23.39
		l-562.2,556.43l522.04-625.99l-13.92-24.1l-515.91,618.63l476.22-687.37l-14.45-25.03l-469.2,677.23l430.1-744.95l-15.09-26.13
		L363.74,1466.63l-11.44,19.6l22.92-0.18l-0.17,0.18H1567.7z M376.13,1486.18l0.13-0.14l1.02-0.01h0.66L376.13,1486.18z"/>
</g>
<g id="Isolation_Mode">
</g>
</svg>
