<?xml version="1.0" encoding="utf-8"?>
<!-- Generator: Adobe Illustrator 23.1.1, SVG Export Plug-In . SVG Version: 6.00 Build 0)  -->
<svg version="1.1" xmlns="http://www.w3.org/2000/svg" xmlns:xlink="http://www.w3.org/1999/xlink" x="0px" y="0px"
	 viewBox="0 0 1920 1920" style="enable-background:new 0 0 1920 1920;" xml:space="preserve">
<style type="text/css">
	.st0{opacity:0.88;}
	.st1{fill:#C84270;}
</style>
<g id="Layer_1">
</g>
<g id="Isolation_Mode">
	<g>
		<polygon class="st1" points="408.83,865.28 1061.32,865.28 1061.32,1517.77 1095.07,1517.77 1095.07,831.54 408.83,831.54 		"/>
		<polygon class="st1" points="408.83,939.62 986.99,939.62 986.99,1517.77 1020.73,1517.77 1020.73,905.88 408.83,905.88 		"/>
		<polygon class="st1" points="408.83,1013.96 912.65,1013.96 912.65,1517.77 946.39,1517.77 946.39,980.21 408.83,980.21 		"/>
		<polygon class="st1" points="408.83,1088.29 838.31,1088.29 838.31,1517.77 872.05,1517.77 872.05,1054.55 408.83,1054.55 		"/>
		<polygon class="st1" points="408.83,1162.63 763.97,1162.63 763.97,1517.77 797.72,1517.77 797.72,1128.89 408.83,1128.89 		"/>
		<polygon class="st1" points="1511.17,791.11 1511.17,757.37 1169.4,757.37 1169.4,757.2 1169.24,757.2 1169.24,402.23 
			1135.49,402.23 1135.49,757.2 1094.9,757.2 1094.9,402.23 1061.16,402.23 1061.16,757.2 1020.56,757.2 1020.56,402.23 
			986.82,402.23 986.82,757.2 946.23,757.2 946.23,402.23 912.48,402.23 912.48,757.2 871.89,757.2 871.89,402.23 838.14,402.23 
			838.14,757.2 797.55,757.2 797.55,402.23 763.81,402.23 763.81,757.2 408.83,757.2 408.83,790.95 1135.66,790.95 1135.66,1517.77 
			1169.4,1517.77 1169.4,1162.8 1511.17,1162.8 1511.17,1129.05 1169.4,1129.05 1169.4,1088.46 1511.17,1088.46 1511.17,1054.72 
			1169.4,1054.72 1169.4,1014.12 1511.17,1014.12 1511.17,980.38 1169.4,980.38 1169.4,939.79 1511.17,939.79 1511.17,906.04 
			1169.4,906.04 1169.4,865.45 1511.17,865.45 1511.17,831.71 1169.4,831.71 1169.4,791.11 		"/>
	</g>
</g>
</svg>
