<?xml version="1.0" encoding="utf-8"?>
<!-- Generator: Adobe Illustrator 23.1.1, SVG Export Plug-In . SVG Version: 6.00 Build 0)  -->
<svg version="1.1" xmlns="http://www.w3.org/2000/svg" xmlns:xlink="http://www.w3.org/1999/xlink" x="0px" y="0px"
	 viewBox="0 0 1920 1920" style="enable-background:new 0 0 1920 1920;" xml:space="preserve">
<style type="text/css">
	.st0{opacity:0.88;}
	.st1{fill:#C84270;}
</style>
<g id="Layer_1">
</g>
<g id="Isolation_Mode">
	<polygon class="st1" points="1516.49,918.48 1512.95,884.91 1117.9,926.44 1495.69,803.68 1485.26,771.59 1107.47,894.34 
		1451.49,695.73 1434.61,666.5 1090.59,865.12 1385.79,599.31 1363.22,574.24 1068,840.05 1301.5,518.67 1274.21,498.83 
		1040.71,820.22 1202.28,457.31 1171.45,443.59 1009.88,806.48 1092.47,417.92 1059.47,410.91 976.87,799.47 976.87,402.23 
		943.13,402.23 943.13,799.48 860.53,410.91 827.53,417.92 910.12,806.48 748.55,443.59 717.72,457.31 879.29,820.21 645.8,498.83 
		618.5,518.67 852,840.05 556.78,574.24 534.21,599.31 829.42,865.12 485.39,666.5 468.52,695.73 812.53,894.34 434.74,771.59 
		424.31,803.68 802.1,926.44 407.05,884.91 403.51,918.48 798.57,960 403.51,1001.52 407.05,1035.09 802.1,993.56 424.31,1116.32 
		434.74,1148.41 812.53,1025.66 468.52,1224.27 485.39,1253.5 829.42,1054.88 534.21,1320.69 556.78,1345.76 852,1079.95 
		618.5,1401.33 645.8,1421.17 879.29,1099.79 717.72,1462.69 748.55,1476.41 910.12,1113.52 827.53,1502.08 860.53,1509.09 
		943.13,1120.52 943.13,1517.77 976.87,1517.77 976.87,1120.53 1059.47,1509.09 1092.47,1502.08 1009.88,1113.52 1171.45,1476.41 
		1202.28,1462.69 1040.71,1099.78 1274.21,1421.17 1301.5,1401.33 1068,1079.95 1363.22,1345.76 1385.79,1320.69 1090.59,1054.88 
		1434.61,1253.5 1451.49,1224.27 1107.47,1025.66 1485.26,1148.41 1495.69,1116.32 1117.9,993.56 1512.95,1035.09 1516.49,1001.52 
		1121.43,960 	"/>
</g>
</svg>
