<?xml version="1.0" encoding="utf-8"?>
<!-- Generator: Adobe Illustrator 23.1.1, SVG Export Plug-In . SVG Version: 6.00 Build 0)  -->
<svg version="1.1" xmlns="http://www.w3.org/2000/svg" xmlns:xlink="http://www.w3.org/1999/xlink" x="0px" y="0px"
	 viewBox="0 0 1920 1920" style="enable-background:new 0 0 1920 1920;" xml:space="preserve">
<style type="text/css">
	.st0{opacity:0.88;}
	.st1{fill:#C84270;}
</style>
<g id="Layer_1">
	<g class="st0">
		<g>
			<path class="st1" d="M1344.7,566.85c-51.19-50.65-112.25-91.21-178.82-118.31c-66.52-27.2-138.37-41.02-210.11-40.68
				c-71.73,0.36-143.3,14.89-209.3,42.63c-66.05,27.65-126.33,68.58-176.64,119.35c-50.27,50.8-90.5,111.39-117.39,177.45
				c-26.98,66.01-40.7,137.31-40.35,208.49c0.36,71.19,14.78,142.2,42.31,207.69c27.44,65.53,68.05,125.35,118.43,175.27
				c50.42,49.88,110.53,89.8,176.07,116.48c65.5,26.77,136.24,40.38,206.88,40.03c70.64-0.36,141.1-14.67,206.07-41.99
				c65.02-27.23,124.35-67.52,173.89-117.51c49.5-50.04,89.09-109.68,115.56-174.7c26.56-64.98,40.06-135.18,39.71-205.26
				c-0.36-70.09-14.56-140-41.66-204.46c-27.02-64.5-66.99-123.37-116.6-172.52l23.89-23.89c52.19,52.71,94.03,115.68,121.98,184.3
				c28.05,68.58,42.31,142.64,41.96,216.57c-0.36,73.93-15.32,147.7-43.91,215.76c-28.5,68.1-70.71,130.29-123.01,182.12
				c-52.33,51.8-114.82,93.32-182.93,121.06c-68.07,27.83-141.57,41.98-214.95,41.64c-73.38-0.36-146.6-15.21-214.14-43.59
				c-67.59-28.29-129.3-70.18-180.75-122.09c-51.42-51.95-92.61-113.96-120.14-181.56c-27.62-67.55-41.66-140.51-41.32-213.34
				c0.36-72.83,15.1-145.5,43.27-212.53c28.07-67.08,69.65-128.31,121.18-179.38c51.57-51.03,113.1-91.91,180.19-119.23
				c67.04-27.41,139.44-41.34,211.72-41c72.29,0.36,144.4,14.99,210.92,42.95C1233.25,474.45,1294.02,515.71,1344.7,566.85z"/>
		</g>
		<g>
			<path class="st1" d="M1309.61,601.94c46.03,46.55,82.86,102.18,107.43,162.76c24.66,60.55,37.14,125.88,36.79,191.08
				c-0.36,65.2-13.55,130.25-38.74,190.27c-25.12,60.06-62.33,114.91-108.47,160.58c-46.17,45.64-101.32,82.16-161.39,106.52
				c-60.03,24.44-124.81,36.82-189.46,36.47c-64.65-0.36-129.15-13.44-188.66-38.43c-59.54-24.91-113.92-61.8-159.2-107.55
				c-45.26-45.78-81.45-100.46-105.6-160.01c-24.23-59.52-36.5-123.75-36.15-187.85c0.36-64.11,13.33-128.06,38.11-187.05
				C528.96,709.7,565.53,655.8,610.9,610.9c45.4-44.87,99.6-80.74,158.63-104.68c59.01-24.02,122.69-36.18,186.24-35.83
				c63.56,0.36,126.96,13.22,185.44,37.78c58.51,24.48,111.94,60.73,156.45,105.71c-45.02-44.49-98.73-80.04-157.26-103.76
				c-58.49-23.8-121.62-35.86-184.63-35.52c-63.01,0.36-125.87,13.12-183.83,37.47c-58,24.27-110.95,60.2-155.08,104.8
				c-44.1,44.63-79.33,97.87-102.85,155.88c-23.59,57.97-35.54,120.56-35.19,183.02c0.36,62.46,13.01,124.77,37.15,182.22
				c24.06,57.49,59.67,109.96,103.88,153.7c44.25,43.72,97.01,78.63,154.51,101.93c57.46,23.38,119.49,35.22,181.41,34.88
				c61.92-0.36,123.67-12.9,180.6-36.83c56.98-23.85,108.97-59.14,152.33-102.96c43.33-43.86,77.92-96.15,101.01-153.14
				c23.17-56.94,34.9-118.43,34.56-179.8c-0.36-61.37-12.8-122.57-36.51-178.99c-23.64-56.46-58.6-107.98-102.04-150.96
				L1309.61,601.94z"/>
		</g>
		<g>
			<path class="st1" d="M1262.58,648.97c39.88,40.39,71.77,88.65,93.02,141.18c21.33,52.5,32.1,109.13,31.75,165.62
				c-0.35,56.5-11.83,112.84-33.7,164.82c-21.8,52.01-54.07,99.49-94.06,139c-40.01,39.49-87.79,71.06-139.81,92.11
				c-51.99,21.11-108.06,31.78-164.01,31.43c-55.95-0.36-111.75-11.72-163.2-33.38c-51.49-21.59-98.5-53.54-137.63-93.14
				c-39.1-39.63-70.36-86.93-91.19-138.43c-20.9-51.47-31.46-107-31.11-162.4c0.36-55.4,11.62-110.65,33.06-161.59
				c21.38-50.98,53.01-97.51,92.23-136.25c39.24-38.72,86.07-69.65,137.06-90.27c50.96-20.69,105.94-31.14,160.79-30.79
				c54.85,0.36,109.55,11.51,159.98,32.74c50.46,21.17,96.52,52.48,134.88,91.31c-38.86-38.33-85.21-68.95-135.68-89.36
				c-50.44-20.48-104.87-30.82-159.18-30.47c-54.31,0.36-108.46,11.4-158.37,32.43c-49.95,20.95-95.53,51.95-133.5,90.39
				c-37.95,38.47-68.24,84.35-88.44,134.31c-20.27,49.93-30.5,103.81-30.16,157.57c0.36,53.76,11.3,107.36,32.1,156.76
				c20.75,49.44,51.41,94.54,89.47,132.13c38.09,37.56,83.49,67.53,132.93,87.52c49.41,20.05,102.74,30.18,155.95,29.84
				c53.21-0.36,106.26-11.19,155.15-31.79c48.92-20.53,93.55-50.88,130.75-88.55c37.18-37.7,66.83-82.63,86.6-131.56
				c19.84-48.9,29.86-101.68,29.52-154.34c-0.36-52.66-11.08-105.17-31.47-153.54c-20.32-48.41-50.35-92.56-87.64-129.38
				L1262.58,648.97z"/>
		</g>
		<g>
			<path class="st1" d="M1215.55,696.01c33.72,34.23,60.68,75.12,78.62,119.6c18,44.46,27.06,92.38,26.71,140.17
				c-0.36,47.79-10.12,95.43-28.66,139.36c-18.48,43.96-45.82,84.07-79.65,117.42c-33.85,33.34-74.26,59.97-118.23,77.7
				c-43.94,17.79-91.32,26.74-138.56,26.39c-47.24-0.35-94.34-10.01-137.75-28.34c-43.44-18.27-83.08-45.29-116.05-78.73
				c-32.95-33.47-59.27-73.4-76.78-116.85c-17.57-43.43-26.42-90.25-26.07-136.95c0.35-46.7,9.9-93.24,28.02-136.14
				c18.06-42.93,44.76-82.09,77.81-114.67c33.08-32.56,72.54-58.56,115.48-75.86c42.91-17.36,89.19-26.1,135.33-25.75
				c46.15,0.35,92.14,9.79,134.53,27.7c42.41,17.85,81.1,44.22,113.3,76.9c-32.7-32.18-71.68-57.85-114.11-74.94
				c-42.4-17.15-88.12-25.78-133.72-25.43c-45.6,0.36-91.05,9.69-132.92,27.38c-41.9,17.64-80.11,43.69-111.92,75.98
				c-31.79,32.31-57.15,70.82-74.03,112.73c-16.94,41.89-25.46,87.06-25.11,132.11c0.35,45.05,9.58,89.95,27.06,131.31
				c17.43,41.39,43.16,79.12,75.06,110.55c31.93,31.41,69.96,56.44,111.35,73.11c41.37,16.73,86,25.14,130.5,24.79
				c44.5-0.36,88.85-9.47,129.69-26.74c40.87-17.22,78.13-42.63,109.17-74.15c31.02-31.54,55.73-69.1,72.2-109.98
				c16.51-40.85,24.82-84.93,24.47-128.89c-0.36-43.96-9.37-87.76-26.42-128.08c-17.01-40.36-42.1-77.14-73.23-107.8L1215.55,696.01
				z"/>
		</g>
		<g>
			<path class="st1" d="M1168.52,743.04c27.57,28.08,49.59,61.6,64.21,98.02c14.67,36.41,22.02,75.63,21.67,114.71
				c-0.35,39.08-8.4,78.02-23.62,113.91c-15.17,35.91-37.56,68.65-65.24,95.84c-27.69,27.18-60.73,48.88-96.65,63.29
				c-35.9,14.46-74.57,21.7-113.1,21.35c-38.54-0.35-76.93-8.29-112.29-23.3c-35.39-14.96-67.66-37.03-94.47-64.32
				c-26.8-27.31-48.17-59.87-62.37-95.28c-14.25-35.38-21.38-73.5-21.03-111.49c0.35-37.99,8.19-75.83,22.98-110.68
				c14.75-34.88,36.5-66.67,63.41-93.1c26.92-26.41,59.01-47.47,93.9-61.45c34.87-14.04,72.44-21.06,109.88-20.71
				c37.44,0.36,74.73,8.08,109.07,22.66c34.36,14.53,65.68,35.97,91.72,62.49c-26.54-26.02-58.15-46.76-92.52-60.54
				c-34.35-13.82-71.38-20.74-108.27-20.39c-36.9,0.35-73.64,7.97-107.46,22.34c-33.85,14.32-64.69,35.44-90.35,61.57
				c-25.64,26.15-46.05,57.29-59.62,91.15c-13.61,33.84-20.42,70.31-20.07,106.66c0.35,36.35,7.87,72.54,22.02,105.85
				c14.11,33.34,34.9,63.7,60.65,88.97c25.77,25.25,56.43,45.35,89.77,58.7c33.32,13.4,69.25,20.1,105.05,19.75
				c35.8-0.36,71.44-7.76,104.24-21.7c32.82-13.9,62.71-34.37,87.59-59.74c24.87-25.39,44.64-55.57,57.79-88.4
				c13.19-32.81,19.78-68.18,19.43-103.44c-0.35-35.25-7.65-70.35-21.38-102.63c-13.69-32.31-33.84-61.72-58.82-86.22
				L1168.52,743.04z"/>
		</g>
		<g>
			<path class="st1" d="M1121.48,790.07c21.39,21.95,38.46,48.09,49.77,76.46c11.35,28.36,16.99,58.87,16.66,89.24
				c-0.37,30.38-6.71,60.6-18.61,88.44c-11.85,27.85-29.3,53.22-50.8,74.28c-21.56,21-47.23,37.75-75.09,48.85
				c-27.85,11.14-57.8,16.67-87.63,16.34c-29.83-0.37-59.51-6.61-86.82-18.29c-27.34-11.64-52.23-28.77-72.91-49.88
				c-20.62-21.18-37.04-46.37-47.93-73.71c-10.92-27.33-16.35-56.74-16.02-86.02c0.37-29.28,6.5-58.41,17.97-85.21
				c11.44-26.82,28.24-51.24,48.97-71.53c20.79-20.23,45.51-36.34,72.34-47.01c26.82-10.71,55.68-16.04,84.41-15.7
				c28.74,0.37,57.31,6.39,83.6,17.65c26.31,11.22,50.25,27.71,70.16,48.05c-20.41-19.84-44.65-35.63-70.96-46.1
				c-26.3-10.5-54.61-15.72-82.8-15.38c-28.19,0.37-56.22,6.29-81.99,17.33C847.99,768.88,824.53,785.05,805,805
				c-19.46,20.03-34.93,43.79-45.18,69.59c-10.29,25.79-15.4,53.55-15.06,81.19c0.37,27.64,6.18,55.12,17.01,80.38
				c10.8,25.28,26.64,48.27,46.21,67.41c19.64,19.07,42.92,34.22,68.21,44.26c25.27,10.08,52.49,15.08,79.58,14.74
				c27.09-0.37,54.02-6.07,78.77-16.69c24.76-10.59,47.27-26.11,66.03-45.3c18.69-19.26,33.51-42.06,43.35-66.84
				c9.86-24.76,14.76-51.42,14.42-77.96c-0.37-26.54-5.97-52.93-16.37-77.16c-10.38-24.25-25.58-46.28-44.38-64.66L1121.48,790.07z"
				/>
		</g>
		<g>
			<path class="st1" d="M1074.45,837.11c15.24,15.78,27.38,34.55,35.37,54.88c8.02,20.32,11.95,42.12,11.61,63.79
				c-0.36,21.67-4.99,43.2-13.56,62.99c-8.54,19.8-21.05,37.8-36.4,52.7c-15.4,14.86-33.69,26.67-53.5,34.45
				c-19.8,7.81-41.06,11.63-62.18,11.29c-21.12-0.36-42.1-4.88-61.38-13.24c-19.29-8.33-36.81-20.52-51.32-35.48
				c-14.47-15.01-25.96-32.83-33.53-52.13c-7.6-19.29-11.31-39.99-10.97-60.57c0.36-20.58,4.78-41,12.92-59.76
				c8.12-18.77,19.99-35.82,34.57-49.95c14.63-14.08,31.97-25.26,50.76-32.61c18.77-7.38,38.93-10.99,58.96-10.65
				c20.03,0.36,39.91,4.67,58.15,12.6c18.26,7.91,34.83,19.45,48.58,33.65c-28.4-27.58-67.72-42.88-106.73-42.03
				c-39.04,0.57-77.13,17.23-103.74,45.01c-26.8,27.63-41.63,65.82-40.79,103.74c0.58,37.95,16.77,74.92,43.77,100.75
				c26.86,26.02,63.93,40.38,100.76,39.55c36.86-0.59,72.7-16.32,97.77-42.54c25.23-26.09,39.14-62.03,38.32-97.77
				c-0.6-35.77-15.87-70.49-41.3-94.78L1074.45,837.11z"/>
		</g>
	</g>
</g>
<g id="Isolation_Mode">
</g>
</svg>
