<?xml version="1.0" encoding="utf-8"?>
<!-- Generator: Adobe Illustrator 23.1.1, SVG Export Plug-In . SVG Version: 6.00 Build 0)  -->
<svg version="1.1" xmlns="http://www.w3.org/2000/svg" xmlns:xlink="http://www.w3.org/1999/xlink" x="0px" y="0px"
	 viewBox="0 0 1920 1920" style="enable-background:new 0 0 1920 1920;" xml:space="preserve">
<style type="text/css">
	.st0{opacity:0.88;}
	.st1{fill:#C84270;}
</style>
<g id="Layer_1">
	<g>
		<path class="st1" d="M1372.55,615.58c8.4,57.65,17.09,117.27,85.05,185.23c16.25,16.25,32.02,29.08,47.4,39.36
			c-4.1-18.72-9.13-37.09-15.06-55.06c-2.81-2.62-5.63-5.31-8.48-8.15c-53.59-53.6-65.34-100.45-72.9-148.73
			c-13.07-17.63-27.16-34.46-42.17-50.41C1368.86,590.34,1370.7,602.88,1372.55,615.58z"/>
		<path class="st1" d="M1066.13,438.49c54.61,7.96,106.18,15.48,166.24,75.52c60.04,60.05,67.56,111.62,75.52,166.23
			c8.4,57.65,17.09,117.26,85.05,185.22c44.51,44.52,85.44,63.6,124.58,73.84c-0.44-12.05-1.22-24.02-2.42-35.86
			c-31.42-9.82-63.43-26.96-98.31-61.84c-60.04-60.05-67.56-111.62-75.52-166.23c-8.4-57.65-17.09-117.26-85.05-185.22
			c-2.81-2.81-5.61-5.49-8.39-8.11c-84-50.66-182.42-79.83-287.67-79.83c-5.42,0-10.83,0.1-16.21,0.25
			C986.92,426.92,1026.98,432.78,1066.13,438.49z"/>
		<path class="st1" d="M1167.71,578.67c60.04,60.05,67.56,111.62,75.52,166.23c8.4,57.65,17.09,117.27,85.05,185.23
			c67.97,67.97,127.59,76.66,185.24,85.07c0.56,0.08,1.12,0.16,1.69,0.25c1.1-11.16,1.85-22.42,2.28-33.77
			c-54.28-7.92-105.62-15.68-165.35-75.4c-60.04-60.05-67.56-111.62-75.52-166.23c-8.4-57.65-17.09-117.27-85.05-185.23
			c-67.96-67.97-127.57-76.65-185.22-85.05c-48.88-7.12-95.33-13.93-147.59-58.31c-13.57,2.49-26.97,5.47-40.17,8.93
			c67,65.84,125.91,74.47,182.9,82.78C1056.08,511.11,1107.66,518.63,1167.71,578.67z"/>
		<path class="st1" d="M751.59,482.75c67.96,67.97,127.57,76.65,185.23,85.06c54.61,7.96,106.18,15.48,166.24,75.52
			c60.05,60.05,67.56,111.62,75.52,166.23c8.4,57.65,17.09,117.26,85.05,185.22c67.97,67.97,127.59,76.66,185.25,85.07
			c18.16,2.65,35.99,5.26,53.91,9.76c2.6-10.92,4.89-21.96,6.83-33.12c-18.96-4.64-37.52-7.35-55.87-10.03
			c-54.61-7.96-106.2-15.48-166.25-75.54c-60.04-60.05-67.56-111.62-75.52-166.23c-8.4-57.65-17.09-117.26-85.05-185.22
			c-67.96-67.97-127.58-76.65-185.23-85.06c-54.61-7.96-106.19-15.48-166.24-75.52c-6.39-6.39-12.15-12.68-17.41-18.89
			c-10.96,4.26-21.73,8.87-32.34,13.79C733.22,463.29,741.76,472.93,751.59,482.75z"/>
		<path class="st1" d="M686.92,547.42c67.96,67.97,127.58,76.65,185.23,85.06c54.61,7.96,106.19,15.48,166.24,75.52
			c60.04,60.05,67.56,111.62,75.52,166.23c8.4,57.65,17.09,117.27,85.05,185.23c67.97,67.97,127.59,76.66,185.24,85.07
			c31.48,4.59,61.96,9.06,93.63,23.5c4.21-10.47,8.12-21.09,11.7-31.86c-34.87-15.47-67.98-20.29-100.46-25.03
			c-54.61-7.96-106.19-15.48-166.25-75.53c-60.04-60.05-67.56-111.62-75.52-166.23c-8.4-57.65-17.09-117.27-85.05-185.23
			c-67.96-67.97-127.57-76.65-185.23-85.06c-54.61-7.96-106.18-15.48-166.24-75.52c-14.81-14.82-26.42-29.11-35.63-43.07
			c-9.69,5.78-19.21,11.82-28.51,18.15C657.06,514.46,670.19,530.68,686.92,547.42z"/>
		<path class="st1" d="M622.27,612.08c67.96,67.97,127.58,76.65,185.23,85.06c54.61,7.96,106.18,15.48,166.24,75.52
			c60.04,60.05,67.56,111.62,75.52,166.23c8.4,57.65,17.09,117.26,85.05,185.22c67.97,67.97,127.59,76.66,185.24,85.07
			c39.87,5.81,78.12,11.42,119.24,37.36c5.8-9.66,11.31-19.51,16.52-29.55c-46.28-28.86-89.1-35.12-130.89-41.21
			c-54.61-7.96-106.19-15.48-166.25-75.54c-60.04-60.05-67.56-111.62-75.52-166.23c-8.4-57.65-17.09-117.27-85.05-185.22
			c-67.96-67.97-127.58-76.65-185.23-85.06c-54.61-7.96-106.18-15.48-166.24-75.52c-19.49-19.49-33.42-38.08-43.65-56.18
			c-8.82,7.38-17.42,15.02-25.76,22.92C587.89,573.4,602.58,592.39,622.27,612.08z"/>
		<path class="st1" d="M557.6,676.74c67.96,67.96,127.58,76.65,185.23,85.05c54.61,7.96,106.19,15.48,166.24,75.52
			c60.04,60.05,67.56,111.62,75.52,166.23c8.4,57.65,17.09,117.26,85.05,185.22c67.97,67.97,127.59,76.66,185.24,85.07
			c43.84,6.39,85.74,12.53,131.63,45.76c7.27-8.61,14.31-17.43,21.06-26.47c-52.85-38.83-100.98-45.85-147.82-52.68
			c-54.62-7.96-106.2-15.49-166.25-75.54c-60.04-60.05-67.56-111.62-75.52-166.23c-8.4-57.65-17.09-117.26-85.05-185.22
			c-67.97-67.97-127.58-76.65-185.23-85.06c-54.61-7.96-106.19-15.48-166.24-75.52c-19.71-19.71-33.73-38.5-43.99-56.79
			c-7.84,9.09-15.37,18.45-22.62,28.04C525.65,641.15,539.51,658.65,557.6,676.74z"/>
		<path class="st1" d="M492.94,741.4c67.97,67.97,127.58,76.65,185.23,85.06c54.61,7.96,106.18,15.48,166.23,75.52
			c60.04,60.05,67.56,111.62,75.52,166.23c8.4,57.65,17.09,117.27,85.05,185.23c67.97,67.97,127.58,76.66,185.24,85.07
			c43.91,6.4,85.87,12.54,131.84,45.91c8.73-7.45,17.22-15.16,25.48-23.13c-54.67-41.89-104.25-49.15-152.45-56.18
			c-54.61-7.96-106.19-15.48-166.25-75.53c-60.04-60.05-67.56-111.62-75.52-166.23c-8.4-57.65-17.09-117.27-85.05-185.23
			c-67.96-67.97-127.57-76.65-185.22-85.05c-54.61-7.96-106.19-15.48-166.24-75.52c-14.87-14.87-26.51-29.22-35.75-43.23
			c-6.4,10.71-12.46,21.63-18.15,32.79C471.38,718.3,481.27,729.72,492.94,741.4z"/>
		<path class="st1" d="M428.29,806.06c67.96,67.97,127.57,76.65,185.22,85.05c54.61,7.96,106.19,15.48,166.24,75.52
			c60.04,60.05,67.56,111.62,75.52,166.23c8.4,57.65,17.09,117.27,85.05,185.22c67.97,67.97,127.59,76.66,185.24,85.07
			c39.66,5.78,77.73,11.36,118.6,36.96c10.59-6.28,20.95-12.89,31.07-19.83c-51.67-36.91-98.86-43.82-144.8-50.52
			c-54.62-7.96-106.2-15.49-166.25-75.54c-60.04-60.05-67.56-111.62-75.52-166.23c-8.4-57.65-17.09-117.26-85.05-185.22
			c-67.97-67.97-127.58-76.65-185.23-85.06c-54.61-7.96-106.18-15.48-166.23-75.52c-5.45-5.45-10.46-10.83-15.08-16.15
			c-4.45,12-8.49,24.21-12.12,36.58C426.06,803.78,427.14,804.91,428.29,806.06z"/>
		<path class="st1" d="M1065.76,1434.43c-54.61-7.96-106.19-15.48-166.25-75.53c-60.04-60.05-67.56-111.62-75.52-166.23
			c-8.4-57.65-17.09-117.27-85.05-185.23c-67.96-67.97-127.57-76.65-185.22-85.05c-47.64-6.94-92.97-13.56-143.63-54.99
			c-2.13,12.71-3.83,25.56-5.08,38.55c51.29,36.32,98.19,43.18,143.85,49.84c54.61,7.96,106.18,15.48,166.23,75.52
			c60.04,60.05,67.56,111.62,75.52,166.23c8.4,57.65,17.09,117.27,85.05,185.23c67.97,67.97,127.58,76.66,185.24,85.07
			c27.93,4.07,55.06,8.05,82.94,18.97c14.6-5.09,28.92-10.76,42.94-17C1144.25,1445.9,1104.56,1440.09,1065.76,1434.43z"/>
		<path class="st1" d="M1001.11,1499.09c-54.61-7.96-106.2-15.49-166.25-75.54c-60.04-60.05-67.56-111.62-75.52-166.23
			c-8.4-57.65-17.09-117.26-85.05-185.22c-67.96-67.97-127.58-76.65-185.23-85.06c-29.14-4.25-57.42-8.38-86.58-20.42
			c0.14,12.34,0.65,24.59,1.58,36.72c27.51,9.4,54.02,13.29,80.14,17.09c54.61,7.96,106.18,15.48,166.24,75.52
			c60.04,60.05,67.56,111.62,75.52,166.23c8.4,57.65,17.09,117.26,85.05,185.22c38.11,38.11,73.6,57.58,107.58,68.82
			c13.73,1.01,27.6,1.54,41.59,1.54c33.24,0,65.8-2.92,97.44-8.5C1038.43,1504.55,1019.67,1501.8,1001.11,1499.09z"/>
		<path class="st1" d="M694.68,1321.98c-8.4-57.65-17.09-117.27-85.05-185.23c-67.96-67.97-127.57-76.65-185.22-85.05
			c-4.97-0.72-9.9-1.44-14.83-2.2c1.91,11.84,4.17,23.55,6.81,35.13c1.05,0.15,2.1,0.31,3.15,0.46
			c54.61,7.96,106.18,15.48,166.23,75.52c60.04,60.05,67.56,111.62,75.52,166.23c5.9,40.47,11.97,81.92,38.56,126.53
			c20.84,11.02,42.46,20.76,64.77,29.11C709.68,1424.88,702.38,1374.85,694.68,1321.98z"/>
		<path class="st1" d="M630.02,1386.64c-8.4-57.65-17.09-117.26-85.05-185.22c-41.33-41.34-79.58-60.73-116.18-71.48
			c4.47,14,9.49,27.75,15.01,41.24c24.75,10.57,50.16,26.96,77.31,54.1c56.48,56.48,66.48,105.47,74.1,156.53
			c12.45,10.78,25.41,21,38.78,30.66C632.54,1403.91,631.28,1395.31,630.02,1386.64z"/>
	</g>
</g>
<g id="Isolation_Mode">
</g>
</svg>
