<?xml version="1.0" encoding="UTF-8"?>
<svg width="3600px" height="3600px" viewBox="0 0 3600 3600" version="1.1" xmlns="http://www.w3.org/2000/svg" xmlns:xlink="http://www.w3.org/1999/xlink">
    <!-- Generator: Sketch 57.1 (83088) - https://sketch.com -->
    <title>Artboard</title>
    <desc>Created with Sketch.</desc>
    <g id="Artboard" stroke="none" stroke-width="1" fill="none" fill-rule="evenodd">
        <g id="BRIDES-Icons-02" transform="translate(2496.000000, 2484.000000)" fill="#C84270" fill-rule="nonzero">
            <polygon id="Path" points="0.83 463.28 653.32 463.28 653.32 1115.77 687.07 1115.77 687.07 429.54 0.83 429.54"></polygon>
            <polygon id="Path" points="0.83 537.62 578.99 537.62 578.99 1115.77 612.73 1115.77 612.73 503.88 0.83 503.88"></polygon>
            <polygon id="Path" points="0.83 611.96 504.65 611.96 504.65 1115.77 538.39 1115.77 538.39 578.21 0.83 578.21"></polygon>
            <polygon id="Path" points="0.83 686.29 430.31 686.29 430.31 1115.77 464.05 1115.77 464.05 652.55 0.83 652.55"></polygon>
            <polygon id="Path" points="0.83 760.63 355.97 760.63 355.97 1115.77 389.72 1115.77 389.72 726.89 0.83 726.89"></polygon>
            <polygon id="Path" points="1103.17 389.11 1103.17 355.37 761.4 355.37 761.4 355.2 761.24 355.2 761.24 0.23 727.49 0.23 727.49 355.2 686.9 355.2 686.9 0.23 653.16 0.23 653.16 355.2 612.56 355.2 612.56 0.23 578.82 0.23 578.82 355.2 538.23 355.2 538.23 0.23 504.48 0.23 504.48 355.2 463.89 355.2 463.89 0.23 430.14 0.23 430.14 355.2 389.55 355.2 389.55 0.23 355.81 0.23 355.81 355.2 0.83 355.2 0.83 388.95 727.66 388.95 727.66 1115.77 761.4 1115.77 761.4 760.8 1103.17 760.8 1103.17 727.05 761.4 727.05 761.4 686.46 1103.17 686.46 1103.17 652.72 761.4 652.72 761.4 612.12 1103.17 612.12 1103.17 578.38 761.4 578.38 761.4 537.79 1103.17 537.79 1103.17 504.04 761.4 504.04 761.4 463.45 1103.17 463.45 1103.17 429.71 761.4 429.71 761.4 389.11"></polygon>
        </g>
        <g id="BRIDES-Icons-03" transform="translate(1242.000000, 1242.000000)" fill="#C84270" fill-rule="nonzero">
            <path d="M970.55,213.58 C978.95,271.23 987.64,330.85 1055.6,398.81 C1071.85,415.06 1087.62,427.89 1103,438.17 C1098.9,419.45 1093.87,401.08 1087.94,383.11 C1085.13,380.49 1082.31,377.8 1079.46,374.96 C1025.87,321.36 1014.12,274.51 1006.56,226.23 C993.49,208.6 979.4,191.77 964.39,175.82 C966.86,188.34 968.7,200.88 970.55,213.58 Z" id="Path"></path>
            <path d="M664.13,36.49 C718.74,44.45 770.31,51.97 830.37,112.01 C890.41,172.06 897.93,223.63 905.89,278.24 C914.29,335.89 922.98,395.5 990.94,463.46 C1035.45,507.98 1076.38,527.06 1115.52,537.3 C1115.08,525.25 1114.3,513.28 1113.1,501.44 C1081.68,491.62 1049.67,474.48 1014.79,439.6 C954.75,379.55 947.23,327.98 939.27,273.37 C930.87,215.72 922.18,156.11 854.22,88.15 C851.41,85.34 848.61,82.66 845.83,80.04 C761.83,29.38 663.41,0.21 558.16,0.21 C552.74,0.21 547.33,0.31 541.95,0.46 C584.92,24.92 624.98,30.78 664.13,36.49 Z" id="Path"></path>
            <path d="M765.71,176.67 C825.75,236.72 833.27,288.29 841.23,342.9 C849.63,400.55 858.32,460.17 926.28,528.13 C994.25,596.1 1053.87,604.79 1111.52,613.2 C1112.08,613.28 1112.64,613.36 1113.21,613.45 C1114.31,602.29 1115.06,591.03 1115.49,579.68 C1061.21,571.76 1009.87,564 950.14,504.28 C890.1,444.23 882.58,392.66 874.62,338.05 C866.22,280.4 857.53,220.78 789.57,152.82 C721.61,84.85 662,76.17 604.35,67.77 C555.47,60.65 509.02,53.84 456.76,9.46 C443.19,11.95 429.79,14.93 416.59,18.39 C483.59,84.23 542.5,92.86 599.49,101.17 C654.08,109.11 705.66,116.63 765.71,176.67 Z" id="Path"></path>
            <path d="M349.59,80.75 C417.55,148.72 477.16,157.4 534.82,165.81 C589.43,173.77 641,181.29 701.06,241.33 C761.11,301.38 768.62,352.95 776.58,407.56 C784.98,465.21 793.67,524.82 861.63,592.78 C929.6,660.75 989.22,669.44 1046.88,677.85 C1065.04,680.5 1082.87,683.11 1100.79,687.61 C1103.39,676.69 1105.68,665.65 1107.62,654.49 C1088.66,649.85 1070.1,647.14 1051.75,644.46 C997.14,636.5 945.55,628.98 885.5,568.92 C825.46,508.87 817.94,457.3 809.98,402.69 C801.58,345.04 792.89,285.43 724.93,217.47 C656.97,149.5 597.35,140.82 539.7,132.41 C485.09,124.45 433.51,116.93 373.46,56.89 C367.07,50.5 361.31,44.21 356.05,38 C345.09,42.26 334.32,46.87 323.71,51.79 C331.22,61.29 339.76,70.93 349.59,80.75 Z" id="Path"></path>
            <path d="M284.92,145.42 C352.88,213.39 412.5,222.07 470.15,230.48 C524.76,238.44 576.34,245.96 636.39,306 C696.43,366.05 703.95,417.62 711.91,472.23 C720.31,529.88 729,589.5 796.96,657.46 C864.93,725.43 924.55,734.12 982.2,742.53 C1013.68,747.12 1044.16,751.59 1075.83,766.03 C1080.04,755.56 1083.95,744.94 1087.53,734.17 C1052.66,718.7 1019.55,713.88 987.07,709.14 C932.46,701.18 880.88,693.66 820.82,633.61 C760.78,573.56 753.26,521.99 745.3,467.38 C736.9,409.73 728.21,350.11 660.25,282.15 C592.29,214.18 532.68,205.5 475.02,197.09 C420.41,189.13 368.84,181.61 308.78,121.57 C293.97,106.75 282.36,92.46 273.15,78.5 C263.46,84.28 253.94,90.32 244.64,96.65 C255.06,112.46 268.19,128.68 284.92,145.42 Z" id="Path"></path>
            <path d="M220.27,210.08 C288.23,278.05 347.85,286.73 405.5,295.14 C460.11,303.1 511.68,310.62 571.74,370.66 C631.78,430.71 639.3,482.28 647.26,536.89 C655.66,594.54 664.35,654.15 732.31,722.11 C800.28,790.08 859.9,798.77 917.55,807.18 C957.42,812.99 995.67,818.6 1036.79,844.54 C1042.59,834.88 1048.1,825.03 1053.31,814.99 C1007.03,786.13 964.21,779.87 922.42,773.78 C867.81,765.82 816.23,758.3 756.17,698.24 C696.13,638.19 688.61,586.62 680.65,532.01 C672.25,474.36 663.56,414.74 595.6,346.79 C527.64,278.82 468.02,270.14 410.37,261.73 C355.76,253.77 304.19,246.25 244.13,186.21 C224.64,166.72 210.71,148.13 200.48,130.03 C191.66,137.41 183.06,145.05 174.72,152.95 C185.89,171.4 200.58,190.39 220.27,210.08 Z" id="Path"></path>
            <path d="M155.6,274.74 C223.56,342.7 283.18,351.39 340.83,359.79 C395.44,367.75 447.02,375.27 507.07,435.31 C567.11,495.36 574.63,546.93 582.59,601.54 C590.99,659.19 599.68,718.8 667.64,786.76 C735.61,854.73 795.23,863.42 852.88,871.83 C896.72,878.22 938.62,884.36 984.51,917.59 C991.78,908.98 998.82,900.16 1005.57,891.12 C952.72,852.29 904.59,845.27 857.75,838.44 C803.13,830.48 751.55,822.95 691.5,762.9 C631.46,702.85 623.94,651.28 615.98,596.67 C607.58,539.02 598.89,479.41 530.93,411.45 C462.96,343.48 403.35,334.8 345.7,326.39 C291.09,318.43 239.51,310.91 179.46,250.87 C159.75,231.16 145.73,212.37 135.47,194.08 C127.63,203.17 120.1,212.53 112.85,222.12 C123.65,239.15 137.51,256.65 155.6,274.74 Z" id="Path"></path>
            <path d="M90.94,339.4 C158.91,407.37 218.52,416.05 276.17,424.46 C330.78,432.42 382.35,439.94 442.4,499.98 C502.44,560.03 509.96,611.6 517.92,666.21 C526.32,723.86 535.01,783.48 602.97,851.44 C670.94,919.41 730.55,928.1 788.21,936.51 C832.12,942.91 874.08,949.05 920.05,982.42 C928.78,974.97 937.27,967.26 945.53,959.29 C890.86,917.4 841.28,910.14 793.08,903.11 C738.47,895.15 686.89,887.63 626.83,827.58 C566.79,767.53 559.27,715.96 551.31,661.35 C542.91,603.7 534.22,544.08 466.26,476.12 C398.3,408.15 338.69,399.47 281.04,391.07 C226.43,383.11 174.85,375.59 114.8,315.55 C99.93,300.68 88.29,286.33 79.05,272.32 C72.65,283.03 66.59,293.95 60.9,305.11 C69.38,316.3 79.27,327.72 90.94,339.4 Z" id="Path"></path>
            <path d="M26.29,404.06 C94.25,472.03 153.86,480.71 211.51,489.11 C266.12,497.07 317.7,504.59 377.75,564.63 C437.79,624.68 445.31,676.25 453.27,730.86 C461.67,788.51 470.36,848.13 538.32,916.08 C606.29,984.05 665.91,992.74 723.56,1001.15 C763.22,1006.93 801.29,1012.51 842.16,1038.11 C852.75,1031.83 863.11,1025.22 873.23,1018.28 C821.56,981.37 774.37,974.46 728.43,967.76 C673.81,959.8 622.23,952.27 562.18,892.22 C502.14,832.17 494.62,780.6 486.66,725.99 C478.26,668.34 469.57,608.73 401.61,540.77 C333.64,472.8 274.03,464.12 216.38,455.71 C161.77,447.75 110.2,440.23 50.15,380.19 C44.7,374.74 39.69,369.36 35.07,364.04 C30.62,376.04 26.58,388.25 22.95,400.62 C24.06,401.78 25.14,402.91 26.29,404.06 Z" id="Path"></path>
            <path d="M663.76,1032.43 C609.15,1024.47 557.57,1016.95 497.51,956.9 C437.47,896.85 429.95,845.28 421.99,790.67 C413.59,733.02 404.9,673.4 336.94,605.44 C268.98,537.47 209.37,528.79 151.72,520.39 C104.08,513.45 58.75,506.83 8.09,465.4 C5.96,478.11 4.26,490.96 3.01,503.95 C54.3,540.27 101.2,547.13 146.86,553.79 C201.47,561.75 253.04,569.27 313.09,629.31 C373.13,689.36 380.65,740.93 388.61,795.54 C397.01,853.19 405.7,912.81 473.66,980.77 C541.63,1048.74 601.24,1057.43 658.9,1065.84 C686.83,1069.91 713.96,1073.89 741.84,1084.81 C756.44,1079.72 770.76,1074.05 784.78,1067.81 C742.25,1043.9 702.56,1038.09 663.76,1032.43 Z" id="Path"></path>
            <path d="M599.11,1097.09 C544.5,1089.13 492.91,1081.6 432.86,1021.55 C372.82,961.5 365.3,909.93 357.34,855.32 C348.94,797.67 340.25,738.06 272.29,670.1 C204.33,602.13 144.71,593.45 87.06,585.04 C57.92,580.79 29.64,576.66 0.48,564.62 C0.62,576.96 1.13,589.21 2.06,601.34 C29.57,610.74 56.08,614.63 82.2,618.43 C136.81,626.39 188.38,633.91 248.44,693.95 C308.48,754 316,805.57 323.96,860.18 C332.36,917.83 341.05,977.44 409.01,1045.4 C447.12,1083.51 482.61,1102.98 516.59,1114.22 C530.32,1115.23 544.19,1115.76 558.18,1115.76 C591.42,1115.76 623.98,1112.84 655.62,1107.26 C636.43,1102.55 617.67,1099.8 599.11,1097.09 Z" id="Path"></path>
            <path d="M292.68,919.98 C284.28,862.33 275.59,802.71 207.63,734.75 C139.67,666.78 80.06,658.1 22.41,649.7 C17.44,648.98 12.51,648.26 7.58,647.5 C9.49,659.34 11.75,671.05 14.39,682.63 C15.44,682.78 16.49,682.94 17.54,683.09 C72.15,691.05 123.72,698.57 183.77,758.61 C243.81,818.66 251.33,870.23 259.29,924.84 C265.19,965.31 271.26,1006.76 297.85,1051.37 C318.69,1062.39 340.31,1072.13 362.62,1080.48 C307.68,1022.88 300.38,972.85 292.68,919.98 Z" id="Path"></path>
            <path d="M228.02,984.64 C219.62,926.99 210.93,867.38 142.97,799.42 C101.64,758.08 63.39,738.69 26.79,727.94 C31.26,741.94 36.28,755.69 41.8,769.18 C66.55,779.75 91.96,796.14 119.11,823.28 C175.59,879.76 185.59,928.75 193.21,979.81 C205.66,990.59 218.62,1000.81 231.99,1010.47 C230.54,1001.91 229.28,993.31 228.02,984.64 Z" id="Path"></path>
        </g>
        <g id="BRIDES-Icons-01" fill="#C84270" fill-rule="nonzero">
            <polygon id="Path" points="1113.49 516.48 1109.95 482.91 714.9 524.44 1092.69 401.68 1082.26 369.59 704.47 492.34 1048.49 293.73 1031.61 264.5 687.59 463.12 982.79 197.31 960.22 172.24 665 438.05 898.5 116.67 871.21 96.83 637.71 418.22 799.28 55.31 768.45 41.59 606.88 404.48 689.47 15.92 656.47 8.91 573.87 397.47 573.87 0.23 540.13 0.23 540.13 397.48 457.53 8.91 424.53 15.92 507.12 404.48 345.55 41.59 314.72 55.31 476.29 418.21 242.8 96.83 215.5 116.67 449 438.05 153.78 172.24 131.21 197.31 426.42 463.12 82.39 264.5 65.52 293.73 409.53 492.34 31.74 369.59 21.31 401.68 399.1 524.44 4.05 482.91 0.51 516.48 395.57 558 0.51 599.52 4.05 633.09 399.1 591.56 21.31 714.32 31.74 746.41 409.53 623.66 65.52 822.27 82.39 851.5 426.42 652.88 131.21 918.69 153.78 943.76 449 677.95 215.5 999.33 242.8 1019.17 476.29 697.79 314.72 1060.69 345.55 1074.41 507.12 711.52 424.53 1100.08 457.53 1107.09 540.13 718.52 540.13 1115.77 573.87 1115.77 573.87 718.53 656.47 1107.09 689.47 1100.08 606.88 711.52 768.45 1074.41 799.28 1060.69 637.71 697.78 871.21 1019.17 898.5 999.33 665 677.95 960.22 943.76 982.79 918.69 687.59 652.88 1031.61 851.5 1048.49 822.27 704.47 623.66 1082.26 746.41 1092.69 714.32 714.9 591.56 1109.95 633.09 1113.49 599.52 718.43 558"></polygon>
        </g>
        <g id="BRIDES-Icons-04" transform="translate(0.000000, 2484.000000)" fill="#C84270" fill-rule="nonzero" opacity="0.88">
            <g id="Group">
                <g id="Path">
                    <path d="M945.7,163.85 C894.51,113.2 833.45,72.64 766.88,45.54 C700.36,18.34 628.51,4.52 556.77,4.86 C485.04,5.22 413.47,19.75 347.47,47.49 C281.42,75.14 221.14,116.07 170.83,166.84 C120.56,217.64 80.33,278.23 53.44,344.29 C26.46,410.3 12.74,481.6 13.09,552.78 C13.45,623.97 27.87,694.98 55.4,760.47 C82.84,826 123.45,885.82 173.83,935.74 C224.25,985.62 284.36,1025.54 349.9,1052.22 C415.4,1078.99 486.14,1092.6 556.78,1092.25 C627.42,1091.89 697.88,1077.58 762.85,1050.26 C827.87,1023.03 887.2,982.74 936.74,932.75 C986.24,882.71 1025.83,823.07 1052.3,758.05 C1078.86,693.07 1092.36,622.87 1092.01,552.79 C1091.65,482.7 1077.45,412.79 1050.35,348.33 C1023.33,283.83 983.36,224.96 933.75,175.81 L957.64,151.92 C1009.83,204.63 1051.67,267.6 1079.62,336.22 C1107.67,404.8 1121.93,478.86 1121.58629,552.79 C1121.22,626.72 1106.26,700.49 1077.67,768.55 C1049.17,836.65 1006.96,898.84 954.66,950.67 C902.33,1002.47 839.84,1043.99 771.73,1071.73 C703.66,1099.56 630.16,1113.71 556.78,1113.37598 C483.4,1113.01 410.18,1098.16 342.64,1069.78 C275.05,1041.49 213.34,999.6 161.89,947.69 C110.47,895.74 69.28,833.73 41.75,766.13 C14.13,698.58 0.09,625.62 0.42396947,552.79 C0.79,479.96 15.53,407.29 43.7,340.26 C71.77,273.18 113.35,211.95 164.88,160.88 C216.45,109.85 277.98,68.97 345.07,41.65 C412.11,14.24 484.51,0.31 556.79,0.64392298 C629.08,1.01 701.19,15.64 767.71,43.6 C834.25,71.45 895.02,112.71 945.7,163.85 Z"></path>
                </g>
                <g transform="translate(67.000000, 67.000000)" id="Path">
                    <path d="M843.61,131.94 C889.64,178.49 926.47,234.12 951.04,294.7 C975.7,355.25 988.18,420.58 987.837163,485.78 C987.47,550.98 974.28,616.03 949.09,676.05 C923.97,736.11 886.76,790.96 840.62,836.63 C794.45,882.27 739.3,918.79 679.23,943.15 C619.2,967.59 554.42,979.97 489.77,979.627219 C425.12,979.26 360.62,966.18 301.11,941.19 C241.57,916.28 187.19,879.39 141.91,833.64 C96.65,787.86 60.46,733.18 36.31,673.63 C12.08,614.11 -0.19,549.88 0.152718128,485.78 C0.52,421.67 13.49,357.72 38.27,298.73 C62.96,239.7 99.53,185.8 144.9,140.9 C190.3,96.03 244.5,60.16 303.53,36.22 C362.54,12.2 426.22,0.04 489.77,0.382654095 C553.33,0.75 616.73,13.61 675.21,38.17 C733.72,62.65 787.15,98.9 831.66,143.88 C786.64,99.39 732.93,63.84 674.4,40.12 C615.91,16.32 552.78,4.26 489.77,4.6 C426.76,4.96 363.9,17.72 305.94,42.07 C247.94,66.34 194.99,102.27 150.86,146.87 C106.76,191.5 71.53,244.74 48.01,302.75 C24.42,360.72 12.47,423.31 12.82,485.77 C13.18,548.23 25.83,610.54 49.97,667.99 C74.03,725.48 109.64,777.95 153.85,821.69 C198.1,865.41 250.86,900.32 308.36,923.62 C365.82,947 427.85,958.84 489.77,958.5 C551.69,958.14 613.44,945.6 670.37,921.67 C727.35,897.82 779.34,862.53 822.7,818.71 C866.03,774.85 900.62,722.56 923.71,665.57 C946.88,608.63 958.61,547.14 958.27,485.77 C957.91,424.4 945.47,363.2 921.76,306.78 C898.12,250.32 863.16,198.8 819.72,155.82 L843.61,131.94 Z"></path>
                </g>
                <g transform="translate(133.000000, 133.000000)" id="Path">
                    <path d="M730.58,112.97 C770.46,153.36 802.35,201.62 823.6,254.15 C844.93,306.65 855.7,363.28 855.358264,419.77 C855,476.27 843.52,532.61 821.65,584.59 C799.85,636.6 767.58,684.08 727.59,723.59 C687.58,763.08 639.8,794.65 587.78,815.7 C535.79,836.81 479.72,847.48 423.77,847.138339 C367.82,846.77 312.02,835.41 260.57,813.75 C209.08,792.16 162.07,760.21 122.94,720.61 C83.84,680.98 52.58,633.68 31.75,582.18 C10.85,530.71 0.29,475.18 0.631576473,419.78 C1,364.38 12.26,309.13 33.7,258.19 C55.08,207.21 86.71,160.68 125.93,121.94 C165.17,83.22 212,52.29 262.99,31.67 C313.95,10.98 368.93,0.53 423.78,0.88 C478.63,1.24 533.33,12.39 583.76,33.62 C634.22,54.79 680.28,86.1 718.64,124.93 C679.78,86.6 633.43,55.98 582.96,35.57 C532.52,15.09 478.09,4.75 423.78,5.1 C369.47,5.46 315.32,16.5 265.41,37.53 C215.46,58.48 169.88,89.48 131.91,127.92 C93.96,166.39 63.67,212.27 43.47,262.23 C23.2,312.16 12.97,366.04 13.31,419.8 C13.67,473.56 24.61,527.16 45.41,576.56 C66.16,626 96.82,671.1 134.88,708.69 C172.97,746.25 218.37,776.22 267.81,796.21 C317.22,816.26 370.55,826.39 423.76,826.05 C476.97,825.69 530.02,814.86 578.91,794.26 C627.83,773.73 672.46,743.38 709.66,705.71 C746.84,668.01 776.49,623.08 796.26,574.15 C816.1,525.25 826.12,472.47 825.78,419.81 C825.42,367.15 814.7,314.64 794.31,266.27 C773.99,217.86 743.96,173.71 706.67,136.89 L730.58,112.97 Z"></path>
                </g>
                <g transform="translate(200.000000, 200.000000)" id="Path">
                    <path d="M616.55,93.01 C650.27,127.24 677.23,168.13 695.17,212.61 C713.17,257.07 722.23,304.99 721.88,352.78 C721.52,400.57 711.76,448.21 693.22,492.14 C674.74,536.1 647.4,576.21 613.57,609.56 C579.72,642.9 539.31,669.53 495.34,687.26 C451.4,705.05 404.02,714 356.78,713.65 C309.54,713.3 262.44,703.64 219.03,685.31 C175.59,667.04 135.95,640.02 102.98,606.58 C70.03,573.11 43.71,533.18 26.2,489.73 C8.63,446.3 -0.22,399.48 0.13,352.78 C0.48,306.08 10.03,259.54 28.15,216.64 C46.21,173.71 72.91,134.55 105.96,101.97 C139.04,69.41 178.5,43.41 221.44,26.11 C264.35,8.75 310.63,0.01 356.77,0.36 C402.92,0.71 448.91,10.15 491.3,28.06 C533.71,45.91 572.4,72.28 604.6,104.96 C571.9,72.78 532.92,47.11 490.49,30.02 C448.09,12.87 402.37,4.24 356.77,4.59 C311.17,4.95 265.72,14.28 223.85,31.97 C181.95,49.61 143.74,75.66 111.93,107.95 C80.14,140.26 54.78,178.77 37.9,220.68 C20.96,262.57 12.44,307.74 12.79,352.79 C13.14,397.84 22.37,442.74 39.85,484.1 C57.28,525.49 83.01,563.22 114.91,594.65 C146.84,626.06 184.87,651.09 226.26,667.76 C267.63,684.49 312.26,692.9 356.76,692.55 C401.26,692.19 445.61,683.08 486.45,665.81 C527.32,648.59 564.58,623.18 595.62,591.66 C626.64,560.12 651.35,522.56 667.82,481.68 C684.33,440.83 692.64,396.75 692.29,352.79 C691.93,308.83 682.92,265.03 665.87,224.71 C648.86,184.35 623.77,147.57 592.64,116.91 L616.55,93.01 Z"></path>
                </g>
                <g transform="translate(266.000000, 266.000000)" id="Path">
                    <path d="M503.52,74.04 C531.09,102.12 553.11,135.64 567.73,172.06 C582.4,208.47 589.75,247.69 589.4,286.77 C589.05,325.85 581,364.79 565.78,400.68 C550.61,436.59 528.22,469.33 500.54,496.52 C472.85,523.7 439.81,545.4 403.89,559.81 C367.99,574.27 329.32,581.51 290.79,581.16 C252.25,580.81 213.86,572.87 178.5,557.86 C143.11,542.9 110.84,520.83 84.03,493.54 C57.23,466.23 35.86,433.67 21.66,398.26 C7.41,362.88 0.28,324.76 0.63,286.77 C0.98,248.78 8.82,210.94 23.61,176.09 C38.36,141.21 60.11,109.42 87.02,82.99 C113.94,56.58 146.03,35.52 180.92,21.54 C215.79,7.5 253.36,0.48 290.8,0.83 C328.24,1.19 365.53,8.91 399.87,23.49 C434.23,38.02 465.55,59.46 491.59,85.98 C465.05,59.96 433.44,39.22 399.07,25.44 C364.72,11.62 327.69,4.7 290.8,5.05 C253.9,5.4 217.16,13.02 183.34,27.39 C149.49,41.71 118.65,62.83 92.99,88.96 C67.35,115.11 46.94,146.25 33.37,180.11 C19.76,213.95 12.95,250.42 13.3,286.77 C13.65,323.12 21.17,359.31 35.32,392.62 C49.43,425.96 70.22,456.32 95.97,481.59 C121.74,506.84 152.4,526.94 185.74,540.29 C219.06,553.69 254.99,560.39 290.79,560.04 C326.59,559.68 362.23,552.28 395.03,538.34 C427.85,524.44 457.74,503.97 482.62,478.6 C507.49,453.21 527.26,423.03 540.41,390.2 C553.6,357.39 560.19,322.02 559.84,286.76 C559.49,251.51 552.19,216.41 538.46,184.13 C524.77,151.82 504.62,122.41 479.64,97.91 L503.52,74.04 Z"></path>
                </g>
                <g transform="translate(333.000000, 333.000000)" id="Path">
                    <path d="M389.48,54.07 C410.87,76.02 427.94,102.16 439.25,130.53 C450.6,158.89 456.24,189.4 455.91,219.77 C455.54,250.15 449.2,280.37 437.3,308.21 C425.45,336.06 408,361.43 386.5,382.49 C364.94,403.49 339.27,420.24 311.41,431.34 C283.56,442.48 253.61,448.01 223.78,447.68 C193.95,447.31 164.27,441.07 136.96,429.39 C109.62,417.75 84.73,400.62 64.05,379.51 C43.43,358.33 27.01,333.14 16.12,305.8 C5.2,278.47 -0.23,249.06 0.1,219.78 C0.47,190.5 6.6,161.37 18.07,134.57 C29.51,107.75 46.31,83.33 67.04,63.04 C87.83,42.81 112.55,26.7 139.38,16.03 C166.2,5.32 195.06,-0.01 223.79,0.33 C252.53,0.7 281.1,6.72 307.39,17.98 C333.7,29.2 357.64,45.69 377.55,66.03 C357.14,46.19 332.9,30.4 306.59,19.93 C280.29,9.43 251.98,4.21 223.79,4.55 C195.6,4.92 167.57,10.84 141.8,21.88 C115.99,32.88 92.53,49.05 73,69 C53.54,89.03 38.07,112.79 27.82,138.59 C17.53,164.38 12.42,192.14 12.76,219.78 C13.13,247.42 18.94,274.9 29.77,300.16 C40.57,325.44 56.41,348.43 75.98,367.57 C95.62,386.64 118.9,401.79 144.19,411.83 C169.46,421.91 196.68,426.91 223.77,426.57 C250.86,426.2 277.79,420.5 302.54,409.88 C327.3,399.29 349.81,383.77 368.57,364.58 C387.26,345.32 402.08,322.52 411.92,297.74 C421.78,272.98 426.68,246.32 426.34,219.78 C425.97,193.24 420.37,166.85 409.97,142.62 C399.59,118.37 384.39,96.34 365.59,77.96 L389.48,54.07 Z"></path>
                </g>
                <g transform="translate(399.000000, 399.000000)" id="Path">
                    <path d="M276.45,35.11 C291.69,50.89 303.83,69.66 311.82,89.99 C319.84,110.31 323.77,132.11 323.43,153.78 C323.07,175.45 318.44,196.98 309.87,216.77 C301.33,236.57 288.82,254.57 273.47,269.47 C258.07,284.33 239.78,296.14 219.97,303.92 C200.17,311.73 178.91,315.55 157.79,315.21 C136.67,314.85 115.69,310.33 96.41,301.97 C77.12,293.64 59.6,281.45 45.09,266.49 C30.62,251.48 19.13,233.66 11.56,214.36 C3.96,195.07 0.25,174.37 0.59,153.79 C0.95,133.21 5.37,112.79 13.51,94.03 C21.63,75.26 33.5,58.21 48.08,44.08 C62.71,30 80.05,18.82 98.84,11.47 C117.61,4.09 137.77,0.48 157.8,0.82 C177.83,1.18 197.71,5.49 215.95,13.42 C234.21,21.33 250.78,32.87 264.53,47.07 C236.13,19.49 196.81,4.19 157.8,5.04 C118.76,5.61 80.67,22.27 54.06,50.05 C27.26,77.68 12.43,115.87 13.27,153.79 C13.85,191.74 30.04,228.71 57.04,254.54 C83.9,280.56 120.97,294.92 157.8,294.09 C194.66,293.5 230.5,277.77 255.57,251.55 C280.8,225.46 294.71,189.52 293.89,153.78 C293.29,118.01 278.02,83.29 252.59,59 L276.45,35.11 Z"></path>
                </g>
            </g>
        </g>
        <g id="BRIDES-Icons-05" transform="translate(2384.000000, 0.000000)" fill="#C84270" fill-rule="nonzero">
            <path d="M1215.7,1053.23 L1200.61,1027.1 L340.4,1027.1 L1161.51,959.38 L1147.06,934.35 L313.69,1003.09 L1107.37,865.62 L1093.45,841.52 L290.34,980.62 L1053.3,771.96 L1039.79,748.57 L270.25,959.02 L999.28,678.41 L986.05,655.5 L253.2,937.58 L945.34,584.98 L932.26,562.32 L238.91,915.53 L891.47,491.68 L878.39,469.02 L226.97,892.13 L837.67,398.5 L824.44,375.59 L216.9,866.66 L783.94,305.44 L770.43,282.05 L208.23,838.48 L730.27,212.49 L716.35,188.39 L200.44,807.02 L676.66,119.65 L662.21,94.62 L193.01,771.85 L623.11,26.9 L608.02,0.77 L11.74,1033.63 L0.3,1053.23 L23.22,1053.05 L23.05,1053.23 L1215.7,1053.23 Z M24.13,1053.18 L24.26,1053.04 L25.28,1053.03 L25.94,1053.03 L24.13,1053.18 Z" id="Shape"></path>
        </g>
    </g>
</svg>