<?xml version="1.0" encoding="UTF-8"?>
<svg width="756px" height="149px" viewBox="0 0 756 149" version="1.1" xmlns="http://www.w3.org/2000/svg" xmlns:xlink="http://www.w3.org/1999/xlink">
    <!-- Generator: Sketch 56.3 (81716) - https://sketch.com -->
    <title>Artboard</title>
    <desc>Created with Sketch.</desc>
    <g id="Artboard" stroke="none" stroke-width="1" fill="none" fill-rule="evenodd">
        <g id="vits_logo" transform="translate(11.000000, 14.000000)" fill="#FFFFFF" fill-rule="nonzero">
            <path d="M724.421765,38.4408602 C722.480441,38.4408602 720.530925,38.4408602 718.58141,38.4408602 C718.58141,38.3504111 718.589601,38.259962 718.589601,38.169513 C705.631058,38.169513 692.590602,38.169513 679.468234,38.169513 C676.314607,38.169513 674.307753,35.398482 674.676358,31.9860848 C674.913904,29.7495256 675.044964,27.5047438 675.061347,25.2681847 C675.085921,21.8475648 677.248408,19.0847565 680.344697,19.0847565 C692.926443,19.0847565 705.426277,19.0847565 717.827816,19.0847565 C720.866766,19.0847565 723.291374,16.3137255 723.193079,12.9013283 C723.119358,10.6647691 723.029254,8.41998735 722.914577,6.18342821 C722.767134,2.77103099 719.801905,0 716.353393,0 C700.421429,0 656.606481,0 650.626875,0 C647.186554,0 646.637741,2.77103099 648.488961,6.18342821 C654.231021,16.8481973 654.034431,27.5129665 651.478764,38.1859583 C651.527911,38.1859583 651.577059,38.1859583 651.618015,38.1859583 C650.544963,42.6672992 649.062348,47.1568627 647.4241,51.6382037 C646.162649,55.0506009 647.825471,57.8216319 651.233027,57.8216319 C662.07823,57.8216319 701.158641,58.0929791 709.874121,58.0929791 C713.240721,58.0929791 715.788197,60.8640101 715.575225,64.2764073 C714.960882,73.2473118 714.42026,82.2099937 714.346539,91.1808982 C714.313774,94.601518 711.307588,97.3643264 707.547808,97.3643264 C701.248744,97.3643264 694.966062,97.3643264 688.691572,97.3643264 C684.948175,97.3643264 681.737208,94.5932954 681.827312,91.1808982 C681.884651,88.7552182 682.048475,86.3377609 682.27783,83.912081 C682.597288,80.4914611 680.066195,77.7286528 676.421093,77.7286528 C665.534934,77.7286528 654.681539,77.7286528 643.869101,77.7286528 C640.256764,77.7286528 636.521558,80.4996837 635.890832,83.912081 C634.260776,92.8829855 634.612999,101.845667 639.101799,110.816572 C640.82196,114.228969 645.703939,117 649.095113,117 C661.406548,117 721.603978,117 723.766466,117 C727.174022,117 729.967235,114.228969 730,110.816572 C730,88.7552182 730,66.6938646 730,44.6325111 C730,41.2118912 727.501672,38.4408602 724.421765,38.4408602 Z" id="Path"></path>
            <path d="M127.505842,1 C124.958585,1 122.403137,1 119.855879,1 C116.464996,1 116.473186,3.77708128 118.733775,7.19692914 C124.540867,15.8248345 125.433636,24.4444992 123.82829,33.0724046 C123.181238,36.4922524 119.323494,39.2693337 115.727847,39.2693337 C112.099438,39.2693337 108.397315,42.046415 107.152353,45.4662629 C99.109243,67.5757853 83.006643,89.6853078 95.7265504,111.803071 C97.6513271,115.222919 102.794986,118 106.177678,118 C112.771062,118 119.372637,118 125.966021,118 C129.381476,118 129.102998,115.222919 126.645836,111.803071 C109.273702,87.6251585 134.951043,63.4472461 143.436441,39.2775743 C147.187708,28.5895197 147.580854,17.8932244 139.406696,7.20516974 C136.793914,3.76884068 130.872154,1 127.505842,1 Z" id="Path"></path>
            <path d="M536.524844,39.2693337 C541.609951,28.5812791 542.143067,17.8849838 531.062454,7.19692914 C527.568494,3.77708128 520.531361,1 517.12762,1 C514.585067,1 512.034311,1 509.491758,1 C506.055209,1 507.810391,3.77708128 511.5258,7.19692914 C520.957854,15.8248345 522.40957,24.4444992 519.801402,33.0724046 C518.767977,36.4922524 514.609672,39.2693337 511.328958,39.2693337 C508.040041,39.2693337 503.980157,42.046415 501.667254,45.4662629 C486.895837,67.5757853 457.320198,89.6853078 480.678884,111.803071 C484.271266,115.222919 491.464232,118 494.859772,118 C501.544227,118 508.236884,118 514.929542,118 C518.349686,118 517.053804,115.222919 513.764888,111.803071 C490.225763,87.6169179 525.017738,63.4472461 536.524844,39.2693337 Z" id="Path"></path>
            <path d="M214.413096,39.2748785 C217.316634,33.0783858 218.710989,26.8818931 217.242816,20.6854004 C226.027249,20.6854004 234.787077,20.6854004 243.505894,20.6854004 C246.983578,20.6854004 249.288364,17.9497148 247.213237,14.5713078 C245.695851,12.0828227 243.596117,9.60257765 240.823812,7.11409254 C237.083661,3.73568561 229.841219,1 226.511172,1 C216.078119,1 164.05229,1 152.298701,1 C148.944048,1 149.5428,3.73568561 152.282297,7.11409254 C154.332818,9.60257765 155.883012,12.0828227 157.006698,14.5713078 C158.532286,17.9497148 161.829524,20.6854004 165.43024,20.6854004 C175.740262,20.6854004 185.984667,20.6854004 196.204466,20.6854004 C197.114897,24.8136488 196.85243,28.9501373 195.761553,33.0783858 C194.851122,36.4979928 190.651654,39.2748785 187.108353,39.2748785 C183.532243,39.2748785 179.505019,42.0517642 177.651348,45.4713712 C165.700909,67.5793366 141.767223,89.6873019 160.664828,111.803507 C163.54376,115.223114 169.867568,118 173.25503,118 C179.874113,118 186.493196,118 193.120481,118 C196.540751,118 195.269428,115.223114 192.004998,111.803507 C168.817701,87.6190577 203.086016,63.4510881 214.413096,39.2748785 Z" id="Path"></path>
            <path d="M316.018033,111.802634 C289.757611,89.6915546 323.006032,67.5804747 339.609713,45.4693949 C342.204551,42.0493062 340.972824,39.2720293 337.523988,39.2720293 C337.523988,39.2720293 337.523988,39.2720293 337.523988,39.2720293 C334.058729,39.2720293 332.983021,36.4947524 334.165479,33.0746637 C335.659975,28.7645277 335.988435,24.4461506 334.592478,20.1360147 C333.278636,16.0648729 330.421029,11.9937311 325.559812,7.92258928 C325.272409,7.68359513 324.968583,7.43635979 324.664757,7.19736564 C320.411193,3.77727689 312.470659,1 309.087515,1 C297.944491,1 259.424279,1 251.303091,1 C247.887101,1 249.816807,3.77727689 253.668007,7.19736564 C263.49719,15.8258787 265.01632,24.4461506 262.298309,33.0746637 C261.214389,36.4947524 256.804806,39.2720293 253.306701,39.2720293 C249.783961,39.2720293 245.555031,42.0493062 243.280442,45.4693949 C228.705005,67.5804747 199.513072,89.6915546 222.562792,111.802634 C226.085532,115.222723 233.196703,118 236.59627,118 C246.721066,118 256.854075,118 266.995295,118 C270.419496,118 268.448733,115.222723 264.622167,111.802634 C247.082373,96.251532 257.494573,80.7004297 270.706899,65.1493273 C273.621986,61.7292386 278.836298,58.9519617 282.244076,58.9519617 C289.149959,58.9519617 296.064054,58.9519617 302.969937,58.9519617 C306.394139,58.9519617 306.624061,61.7292386 303.585801,65.1493273 C289.864361,80.7004297 279.049797,96.251532 297.262935,111.802634 C301.229096,115.222723 308.890439,118 312.281794,118 C314.457846,118 316.633897,118 318.809948,118 C322.258784,118 320.041675,115.222723 316.018033,111.802634 Z M297.303993,39.2720293 C293.805888,39.2720293 292.62343,36.4947524 293.76483,33.0746637 C294.512078,30.8248221 294.9555,28.5749806 295.021192,26.3333803 C295.152576,22.9132915 297.008378,20.1360147 300.514695,20.1360147 C303.372302,20.1360147 306.221697,20.1360147 309.071092,20.1360147 C312.544563,20.1360147 316.371128,22.9132915 316.239744,26.3333803 C316.174052,28.5832218 315.722419,30.8330633 314.950536,33.0746637 C313.784501,36.4947524 309.27638,39.2720293 305.827544,39.2720293 C302.98636,39.2720293 300.153388,39.2720293 297.303993,39.2720293 Z" id="Shape"></path>
            <path d="M95.6535608,38.6183265 C99.2805853,38.6183265 102.989484,35.8412452 103.497104,32.4213974 C104.725216,24.0159882 103.873725,15.6023384 99.0431503,7.19692914 C97.0699835,3.77708128 91.9282873,1 88.5632601,1 C78.402679,1 68.2420979,1 58.0815168,1 C54.7001147,1 53.3246291,3.77708128 54.42993,7.19692914 C57.9505181,17.6707283 57.8604566,28.1445274 56.3048479,38.6183265 C53.6275634,56.6322722 46.6191368,74.6544584 46.2425157,92.668404 C46.168829,96.0882519 43.9091027,98.8653331 40.8306349,98.8653331 C38.3252862,98.8653331 35.8281248,98.8653331 33.3309635,98.8653331 C30.2688705,98.8653331 27.6570854,96.0882519 27.7062099,92.668404 C27.9108952,76.7146077 31.3414218,60.769052 33.2736516,44.8152557 C33.7075845,41.3954078 30.9566133,38.6183265 27.2477147,38.6183265 C23.5551908,38.6183265 20.7223455,35.8412452 20.8287819,32.4213974 C21.107154,24.0159882 20.910656,15.6023384 19.8381048,7.19692914 C19.3714221,3.77708128 16.0718942,1 12.7068669,1 C10.5290147,1 8.35116255,1 6.17331035,1 C2.80009568,1 0.032749657,3.77708128 0,7.19692914 C0,15.6023384 0,24.0077476 0,32.4213974 C0.00818741426,35.8412452 3.02934328,38.6183265 6.73005452,38.6183265 C6.73005452,38.6183265 6.73005452,38.6183265 6.73005452,38.6183265 C10.455328,38.6183265 13.3618601,41.3954078 13.181737,44.8152557 C12.0846234,67.1472743 9.79214746,89.4710523 11.5688164,111.803071 C11.8062514,115.222919 14.8601569,118 18.2579338,118 C29.2372563,118 67.2268585,118 75.2423371,118 C78.6483014,118 79.3687938,115.222919 77.7231236,111.803071 C67.0221731,89.4710523 80.8097788,67.1472743 87.4415843,44.8152557 C88.4404488,41.3954078 92.001974,38.6183265 95.6535608,38.6183265 C95.6535608,38.6183265 95.6535608,38.6183265 95.6535608,38.6183265 Z" id="Path"></path>
            <path d="M635.542421,49.18566 C636.87988,45.7658121 635.164979,42.9887308 631.964924,42.9887308 C628.723843,42.9887308 627.173047,40.2116495 628.083832,36.7918017 C630.578234,27.2574306 630.520797,17.7313002 624.736083,8.19692914 C622.701176,4.77708128 617.425189,2 614.036413,2 C603.016738,2 564.878651,2 556.837488,2 C553.424096,2 554.375907,4.77708128 557.362625,8.19692914 C565.723793,17.7313002 565.805846,27.2574306 562.203733,36.7918017 C560.915506,40.2116495 556.730819,42.9887308 553.456917,42.9887308 C550.19122,42.9887308 546.039355,45.7658121 543.782906,49.18566 C529.981645,70.3887167 507.392541,91.6000141 528.841112,112.803071 C532.287325,116.222919 539.204366,119 542.576731,119 C552.734854,119 562.901181,119 573.059303,119 C576.456284,119 575.726015,116.222919 572.870582,112.803071 C553.08768,89.5316242 577.875796,66.2601775 588.56726,42.9887308 C590.963198,37.7724327 592.653484,32.5478941 592.973489,27.331596 C593.203237,23.9117481 595.238143,21.1346669 598.421787,21.1346669 C601.014652,21.1346669 603.607517,21.1346669 606.192176,21.1346669 C609.35941,21.1346669 612.403564,23.9117481 612.190227,27.331596 C612.017917,30.4877448 611.402522,33.6356529 610.467121,36.7918017 C609.441463,40.2116495 610.860974,42.9887308 614.11026,42.9887308 C617.334931,42.9887308 618.910342,45.7658121 617.367752,49.18566 C607.800409,70.3887167 592.136552,91.6000141 607.012703,112.803071 C609.416847,116.222919 615.062071,119 618.426231,119 C620.600627,119 622.783229,119 624.957625,119 C628.346401,119 628.617174,116.222919 626.590473,112.803071 C613.716407,91.5917735 627.263305,70.3887167 635.542421,49.18566 Z" id="Path"></path>
            <path d="M465.893039,111.803071 C442.813363,90.6000141 469.892969,69.3887167 485.580578,48.18566 C488.126735,44.7658121 487.083632,41.9887308 483.757202,41.9887308 C480.406131,41.9887308 479.53551,39.2116495 481.00571,35.7918017 C485.095987,26.2574306 484.35678,16.7313002 473.071558,7.19692914 C469.071628,3.77708128 461.424946,1 458.024595,1 C444.6121,1 368.153486,1 360.038639,1 C356.605434,1 359.110524,3.77708128 363.43899,7.19692914 C375.603047,16.7313002 376.407961,26.2574306 371.997361,35.7918017 C370.412173,39.2116495 365.664823,41.9887308 362.264472,41.9887308 C358.839481,41.9887308 354.248186,44.7658121 351.447414,48.18566 C334.223898,69.3887167 304.466721,90.6000141 329.821511,111.803071 C333.870722,115.222919 341.640605,118 345.032743,118 C355.200942,118 365.369141,118 375.545553,118 C378.978757,118 376.728284,115.222919 372.67086,111.803071 C344.810981,88.5316242 383.397571,65.2601775 398.937339,41.9887308 C402.419824,36.7724327 404.752431,31.5561347 404.908486,26.331596 C405.048114,22.9117481 406.756503,20.1346669 410.14864,20.1346669 C412.908345,20.1346669 415.66805,20.1346669 418.427755,20.1346669 C421.795253,20.1346669 425.556993,22.9117481 425.417366,26.331596 C425.318805,29.4877448 424.43997,32.6356529 423.002624,35.7918017 C421.433863,39.2116495 422.22235,41.9887308 425.622701,41.9887308 C428.998411,41.9887308 429.942953,44.7658121 427.191462,48.18566 C421.212101,55.6681223 413.696833,63.1505846 407.577844,70.6412875 C404.752431,74.0611354 405.680546,76.8382167 409.138391,76.8382167 C411.347798,76.8382167 413.557205,76.8382167 415.766611,76.8382167 C419.224456,76.8382167 423.873245,74.0611354 426.641163,70.6412875 C432.653378,63.1588252 440.029018,55.6763629 445.901605,48.18566 C448.603816,44.7658121 447.634634,41.9887308 444.27535,41.9887308 C440.891426,41.9887308 440.086512,39.2116495 441.638846,35.7918017 C443.059766,32.6356529 443.930387,29.4877448 444.020734,26.331596 C444.152149,22.9117481 445.852324,20.1346669 449.211608,20.1346669 C452.160222,20.1346669 455.100622,20.1346669 458.032808,20.1346669 C461.359238,20.1346669 465.047058,22.9117481 464.915644,26.331596 C464.825296,29.4877448 463.979315,32.6356529 462.59125,35.7918017 C461.104623,39.1704465 461.810976,42.0546556 465.162046,41.9887308 C468.595251,41.922806 469.65478,44.7246091 466.993636,48.18566 C450.813223,69.3887167 422.862996,90.6000141 446.681879,111.803071 C450.4929,115.222919 457.975314,118 461.367452,118 C463.552218,118 465.736985,118 467.929965,118 C471.354956,118 469.572646,115.222919 465.893039,111.803071 Z" id="Path"></path>
        </g>
    </g>
</svg>