<?xml version="1.0" encoding="utf-8"?>
<!-- Generator: Adobe Illustrator 23.1.1, SVG Export Plug-In . SVG Version: 6.00 Build 0)  -->
<svg version="1.1" xmlns="http://www.w3.org/2000/svg" xmlns:xlink="http://www.w3.org/1999/xlink" x="0px" y="0px"
	 viewBox="0 0 1080 1080" style="enable-background:new 0 0 1080 1080;" xml:space="preserve">
<style type="text/css">
	.st0{fill:#FFFFFF;}
</style>
<g id="BG">
	<g>
		<path class="st0" d="M977.84,514.39c-2.37,0-4.75,0-7.13,0c0-0.11,0.01-0.22,0.01-0.33c-15.82,0-31.74,0-47.76,0
			c-3.85,0-6.3-3.37-5.85-7.52c0.29-2.72,0.45-5.45,0.47-8.17c0.03-4.16,2.67-7.52,6.45-7.52c15.36,0,30.62,0,45.76,0
			c3.71,0,6.67-3.37,6.55-7.52c-0.09-2.72-0.2-5.45-0.34-8.17c-0.18-4.15-3.8-7.52-8.01-7.52c-19.45,0-72.94,0-80.24,0
			c-4.2,0-4.87,3.37-2.61,7.52c7.01,12.97,6.77,25.94,3.65,38.92c0.06,0,0.12,0,0.17,0c-1.31,5.45-3.12,10.91-5.12,16.36
			c-1.54,4.15,0.49,7.52,4.65,7.52c13.24,0,60.95,0.33,71.59,0.33c4.11,0,7.22,3.37,6.96,7.52c-0.75,10.91-1.41,21.81-1.5,32.72
			c-0.04,4.16-3.71,7.52-8.3,7.52c-7.69,0-15.36,0-23.02,0c-4.57,0-8.49-3.37-8.38-7.52c0.07-2.95,0.27-5.89,0.55-8.84
			c0.39-4.16-2.7-7.52-7.15-7.52c-13.29,0-26.54,0-39.74,0c-4.41,0-8.97,3.37-9.74,7.52c-1.99,10.91-1.56,21.81,3.92,32.72
			c2.1,4.15,8.06,7.52,12.2,7.52c15.03,0,88.52,0,91.16,0c4.16,0,7.57-3.37,7.61-7.52c0-26.83,0-53.66,0-80.49
			C984.65,517.76,981.6,514.39,977.84,514.39z"/>
		<path class="st0" d="M251.17,467.95c-3.11,0-6.23,0-9.34,0c-4.14,0-4.13,3.37-1.37,7.52c7.09,10.47,8.18,20.93,6.22,31.4
			c-0.79,4.15-5.5,7.52-9.89,7.52c-4.43,0-8.95,3.37-10.47,7.52c-9.82,26.83-29.48,53.66-13.95,80.5c2.35,4.15,8.63,7.52,12.76,7.52
			c8.05,0,16.11,0,24.16,0c4.17,0,3.83-3.37,0.83-7.52c-21.21-29.34,10.14-58.68,20.5-88.01c4.58-12.97,5.06-25.95-4.92-38.92
			C262.51,471.31,255.28,467.95,251.17,467.95z"/>
		<path class="st0" d="M749.07,514.39c6.2-12.97,6.85-25.95-6.66-38.92c-4.26-4.15-12.84-7.52-16.99-7.52c-3.1,0-6.21,0-9.31,0
			c-4.19,0-2.05,3.37,2.48,7.52c11.5,10.47,13.27,20.93,10.09,31.4c-1.26,4.15-6.33,7.52-10.33,7.52c-4.01,0-8.96,3.37-11.78,7.52
			c-18.01,26.83-54.07,53.66-25.59,80.5c4.38,4.15,13.15,7.52,17.29,7.52c8.15,0,16.31,0,24.47,0c4.17,0,2.59-3.37-1.42-7.52
			C692.62,573.06,735.04,543.73,749.07,514.39z"/>
		<path class="st0" d="M357.04,514.39c3.54-7.52,5.24-15.04,3.45-22.56c10.71,0,21.39,0,32.02,0c4.24,0,7.05-3.32,4.52-7.42
			c-1.85-3.02-4.41-6.03-7.79-9.05c-4.56-4.1-13.39-7.42-17.45-7.42c-12.72,0-76.15,0-90.48,0c-4.09,0-3.36,3.32-0.02,7.42
			c2.5,3.02,4.39,6.03,5.76,9.05c1.86,4.1,5.88,7.42,10.27,7.42c12.57,0,25.06,0,37.52,0c1.11,5.01,0.79,10.03-0.54,15.04
			c-1.11,4.15-6.23,7.52-10.55,7.52c-4.36,0-9.27,3.37-11.53,7.52c-14.57,26.83-43.75,53.66-20.71,80.5
			c3.51,4.15,11.22,7.52,15.35,7.52c8.07,0,16.14,0,24.22,0c4.17,0,2.62-3.37-1.36-7.52C301.45,573.06,343.23,543.73,357.04,514.39z
			"/>
		<path class="st0" d="M480.29,602.4c-31.98-26.83,8.51-53.66,28.73-80.49c3.16-4.15,1.66-7.52-2.54-7.52c0,0,0,0,0,0
			c-4.22,0-5.53-3.37-4.09-7.52c1.82-5.23,2.22-10.47,0.52-15.7c-1.6-4.94-5.08-9.88-11-14.82c-0.35-0.29-0.72-0.59-1.09-0.88
			c-5.18-4.15-14.85-7.52-18.97-7.52c-13.57,0-60.48,0-70.37,0c-4.16,0-1.81,3.37,2.88,7.52c11.97,10.47,13.82,20.93,10.51,31.4
			c-1.32,4.15-6.69,7.52-10.95,7.52c-4.29,0-9.44,3.37-12.21,7.52c-17.75,26.83-53.3,53.66-25.23,80.49
			c4.29,4.15,12.95,7.52,17.09,7.52c12.33,0,24.67,0,37.02,0c4.17,0,1.77-3.37-2.89-7.52c-21.36-18.87-8.68-37.74,7.41-56.61
			c3.55-4.15,9.9-7.52,14.05-7.52c8.41,0,16.83,0,25.24,0c4.17,0,4.45,3.37,0.75,7.52c-16.71,18.87-29.88,37.74-7.7,56.61
			c4.83,4.15,14.16,7.52,18.29,7.52c2.65,0,5.3,0,7.95,0C487.89,609.92,485.19,606.55,480.29,602.4z M457.5,514.39
			c-4.26,0-5.7-3.37-4.31-7.52c0.91-2.73,1.45-5.46,1.53-8.18c0.16-4.15,2.42-7.52,6.69-7.52c3.48,0,6.95,0,10.42,0
			c4.23,0,8.89,3.37,8.73,7.52c-0.08,2.73-0.63,5.46-1.57,8.18c-1.42,4.15-6.91,7.52-11.11,7.52
			C464.42,514.39,460.97,514.39,457.5,514.39z"/>
		<path class="st0" d="M211.52,513.59c4.43,0,8.96-3.37,9.58-7.52c1.5-10.2,0.46-20.41-5.44-30.61c-2.41-4.15-8.69-7.52-12.8-7.52
			c-12.41,0-24.82,0-37.23,0c-4.13,0-5.81,3.37-4.46,7.52c4.3,12.71,4.19,25.42,2.29,38.13c-3.27,21.86-11.83,43.73-12.29,65.59
			c-0.09,4.15-2.85,7.52-6.61,7.52c-3.06,0-6.11,0-9.16,0c-3.74,0-6.93-3.37-6.87-7.52c0.25-19.36,4.44-38.71,6.8-58.07
			c0.53-4.15-2.83-7.52-7.36-7.52c-4.51,0-7.97-3.37-7.84-7.52c0.34-10.2,0.1-20.41-1.21-30.61c-0.57-4.15-4.6-7.52-8.71-7.52
			c-2.66,0-5.32,0-7.98,0c-4.12,0-7.5,3.37-7.54,7.52c0,10.2,0,20.4,0,30.61c0.01,4.15,3.7,7.52,8.22,7.52c0,0,0,0,0,0
			c4.55,0,8.1,3.37,7.88,7.52c-1.34,27.1-4.14,54.19-1.97,81.29c0.29,4.15,4.02,7.52,8.17,7.52c13.41,0,59.81,0,69.6,0
			c4.16,0,5.04-3.37,3.03-7.52c-13.07-27.1,3.77-54.19,11.87-81.29C202.71,516.96,207.06,513.59,211.52,513.59
			C211.52,513.59,211.52,513.59,211.52,513.59z"/>
		<path class="st0" d="M869.95,526.67c1.63-4.15-0.46-7.52-4.36-7.52c-3.95,0-5.84-3.37-4.73-7.52c3.04-11.57,2.97-23.13-4.08-34.7
			c-2.48-4.15-8.91-7.52-13.04-7.52c-13.43,0-59.91,0-69.71,0c-4.16,0-3,3.37,0.64,7.52c10.19,11.57,10.29,23.13,5.9,34.7
			c-1.57,4.15-6.67,7.52-10.66,7.52c-3.98,0-9.04,3.37-11.79,7.52c-16.82,25.73-44.35,51.47-18.21,77.2
			c4.2,4.15,12.63,7.52,16.74,7.52c12.38,0,24.77,0,37.15,0c4.14,0,3.25-3.37-0.23-7.52c-24.11-28.24,6.1-56.48,19.13-84.72
			c2.92-6.33,4.98-12.67,5.37-19c0.28-4.15,2.76-7.52,6.64-7.52c3.16,0,6.32,0,9.47,0c3.86,0,7.57,3.37,7.31,7.52
			c-0.21,3.83-0.96,7.65-2.1,11.48c-1.25,4.15,0.48,7.52,4.44,7.52c3.93,0,5.85,3.37,3.97,7.52c-11.66,25.73-30.75,51.47-12.62,77.2
			c2.93,4.15,9.81,7.52,13.91,7.52c2.65,0,5.31,0,7.96,0c4.13,0,4.46-3.37,1.99-7.52C843.35,578.13,859.86,552.4,869.95,526.67z"/>
		<path class="st0" d="M663.23,602.4c-28.1-25.73,4.87-51.47,23.97-77.2c3.1-4.15,1.83-7.52-2.22-7.52c-4.08,0-5.14-3.37-3.35-7.52
			c4.98-11.57,4.08-23.13-9.66-34.7c-4.87-4.15-14.18-7.52-18.32-7.52c-16.33,0-109.42,0-119.3,0c-4.18,0-1.13,3.37,4.14,7.52
			c14.81,11.57,15.79,23.13,10.42,34.7c-1.93,4.15-7.71,7.52-11.85,7.52c-4.17,0-9.76,3.37-13.17,7.52
			c-20.97,25.73-57.2,51.47-26.33,77.2c4.93,4.15,14.39,7.52,18.52,7.52c12.38,0,24.76,0,37.15,0c4.18,0,1.44-3.37-3.5-7.52
			c-33.92-28.24,13.06-56.48,31.98-84.72c4.24-6.33,7.08-12.66,7.27-19c0.17-4.15,2.25-7.52,6.38-7.52c3.36,0,6.72,0,10.08,0
			c4.1,0,8.68,3.37,8.51,7.52c-0.12,3.83-1.19,7.65-2.94,11.48c-1.91,4.15-0.95,7.52,3.19,7.52c4.11,0,5.26,3.37,1.91,7.52
			c-7.28,9.08-16.43,18.16-23.88,27.25c-3.44,4.15-2.31,7.52,1.9,7.52c2.69,0,5.38,0,8.07,0c4.21,0,9.87-3.37,13.24-7.52
			c7.32-9.08,16.3-18.16,23.45-27.25c3.29-4.15,2.11-7.52-1.98-7.52c-4.12,0-5.1-3.37-3.21-7.52c1.73-3.83,2.79-7.65,2.9-11.48
			c0.16-4.15,2.23-7.52,6.32-7.52c3.59,0,7.17,0,10.74,0c4.05,0,8.54,3.37,8.38,7.52c-0.11,3.83-1.14,7.65-2.83,11.48
			c-1.81,4.1-0.95,7.6,3.13,7.52c4.18-0.08,5.47,3.32,2.23,7.52c-19.7,25.73-53.73,51.47-24.73,77.2
			c4.64,4.15,13.75,7.52,17.88,7.52c2.66,0,5.32,0,7.99,0C669.88,609.92,667.71,606.55,663.23,602.4z"/>
	</g>
</g>
<g id="Layer_2">
</g>
<g id="AW">
</g>
<g id="Layer_1">
</g>
</svg>
