<?xml version="1.0" encoding="UTF-8" standalone="no"?>
<svg
   xmlns:dc="http://purl.org/dc/elements/1.1/"
   xmlns:cc="http://creativecommons.org/ns#"
   xmlns:rdf="http://www.w3.org/1999/02/22-rdf-syntax-ns#"
   xmlns:svg="http://www.w3.org/2000/svg"
   xmlns="http://www.w3.org/2000/svg"
   xmlns:sodipodi="http://sodipodi.sourceforge.net/DTD/sodipodi-0.dtd"
   xmlns:inkscape="http://www.inkscape.org/namespaces/inkscape"
   sodipodi:docname="HONEYDEW_LOGO.svg"
   inkscape:version="1.0 (4035a4f, 2020-05-01)"
   id="svg8"
   version="1.1"
   viewBox="0 0 1322.9166 529.16668"
   height="2000"
   width="5000">
  <defs
     id="defs2" />
  <sodipodi:namedview
     inkscape:window-maximized="0"
     inkscape:window-y="23"
     inkscape:window-x="0"
     inkscape:window-height="779"
     inkscape:window-width="1252"
     units="px"
     showgrid="false"
     inkscape:document-rotation="0"
     inkscape:current-layer="layer1"
     inkscape:document-units="mm"
     inkscape:cy="1194.7647"
     inkscape:cx="2482.3924"
     inkscape:zoom="0.17"
     inkscape:pageshadow="2"
     inkscape:pageopacity="0.0"
     borderopacity="1.0"
     bordercolor="#666666"
     pagecolor="#ffffff"
     id="base" />
  <metadata
     id="metadata5">
    <rdf:RDF>
      <cc:Work
         rdf:about="">
        <dc:format>image/svg+xml</dc:format>
        <dc:type
           rdf:resource="http://purl.org/dc/dcmitype/StillImage" />
        <dc:title></dc:title>
      </cc:Work>
    </rdf:RDF>
  </metadata>
  <g
     id="layer1"
     inkscape:groupmode="layer"
     inkscape:label="Layer 1">
    <g
       style="font-size:299.861px;line-height:1.25;font-family:'Design 2';-inkscape-font-specification:'Design 2, ';letter-spacing:-13.2292px;stroke-width:0.264583"
       id="text20"
       aria-label="honeydew">
      <path
         id="path24"
         style="font-style:normal;font-variant:normal;font-weight:normal;font-stretch:normal;font-size:335.139px;font-family:Times;-inkscape-font-specification:Times;stroke-width:0.264583"
         d="m 32.516631,429.64596 q 13.418652,-1.80007 17.509704,-6.54569 4.254695,-4.90926 4.254695,-22.90989 V 243.09397 q 0,-9.16396 -2.454632,-13.41865 -2.290989,-4.41834 -11.454946,-4.41834 -1.800063,0 -3.600126,0.32729 -1.636421,0.16364 -3.763769,0.49092 v -5.89111 q 7.200253,-2.12735 17.673347,-5.07291 10.636736,-3.1092 14.727788,-4.41833 l 15.709641,-4.90927 0.327284,1.1455 v 100.47624 q 10.309452,-11.78223 18.327915,-17.34606 14.400508,-9.81852 31.091998,-9.81852 26.51002,0 36.1649,22.25532 5.23655,11.78223 5.23655,30.92836 v 66.76597 q 0,17.34606 3.92741,22.58261 4.09105,5.23655 16.52785,6.87297 v 4.58198 h -70.85703 v -4.58198 q 14.23687,-1.96371 18.32792,-6.70933 4.09105,-4.74562 4.09105,-22.74625 v -66.27505 q 0,-15.87328 -5.40019,-25.69181 -5.23654,-9.81852 -19.96433,-9.81852 -12.76409,0 -24.70996,9.16396 -11.945872,9.16395 -11.945872,11.94587 v 80.67555 q 0,18.32791 4.254694,22.90989 4.254695,4.58198 18.164268,6.54569 v 4.58198 H 32.516631 Z" />
      <path
         id="path26"
         style="font-style:normal;font-variant:normal;font-weight:normal;font-stretch:normal;font-size:335.139px;font-family:Times;-inkscape-font-specification:Times;stroke-width:0.264583"
         d="m 192.42076,358.298 q 0,-32.56477 20.61891,-54.98374 20.78254,-22.58261 53.34732,-22.58261 32.40113,0 53.67461,21.27347 21.27347,21.27348 21.27347,56.62017 0,32.56478 -20.6189,56.62016 -20.61891,24.05539 -53.34733,24.05539 -31.41928,0 -53.18368,-23.07353 -21.7644,-23.07354 -21.7644,-57.92931 z m 69.38425,-67.74782 q -12.92772,0 -22.41897,8.50939 -16.3642,14.89143 -16.3642,51.38361 0,29.1283 13.09136,54.32918 13.25501,25.20088 36.65583,25.20088 18.32792,0 28.14644,-16.85513 9.98217,-16.85514 9.98217,-44.18337 0,-28.31008 -12.60044,-53.34732 -12.60044,-25.03724 -36.49219,-25.03724 z m 6.05476,-9.81853 z" />
      <path
         id="path28"
         style="font-style:normal;font-variant:normal;font-weight:normal;font-stretch:normal;font-size:335.139px;font-family:Times;-inkscape-font-specification:Times;stroke-width:0.264583"
         d="m 344.30643,429.64596 q 11.61859,-1.47278 16.20057,-5.72748 4.74562,-4.41833 4.74562,-19.47341 v -82.96654 q 0,-10.47309 -1.9637,-14.72779 -3.1092,-6.21839 -12.76409,-6.21839 -1.47278,0 -3.1092,0.16364 -1.47278,0.16364 -3.76376,0.49092 v -5.72747 q 6.70932,-1.9637 31.74656,-10.14581 l 15.38236,-5.0729 q 1.14549,0 1.30914,0.81821 0.32728,0.81821 0.32728,2.29099 v 24.05538 q 15.05507,-14.07322 23.56446,-19.30976 12.76408,-8.01847 26.51002,-8.01847 11.12766,0 20.29162,6.38205 17.67335,12.43679 17.67335,44.347 v 76.42086 q 0,11.78223 4.74562,17.01878 4.74562,5.23655 15.87328,5.40019 v 4.58198 h -69.87517 v -4.58198 q 11.94587,-1.63642 16.69149,-6.54569 4.74562,-5.0729 4.74562,-21.7644 V 331.4607 q 0,-14.07322 -5.23655,-23.23718 -5.23654,-9.3276 -19.30976,-9.3276 -9.65489,0 -19.63706,6.54569 -5.56383,3.76377 -14.4005,12.4368 v 91.63957 q 0,11.78223 5.23655,15.87328 5.23654,3.92741 16.52785,4.2547 v 4.58198 h -71.5116 z m 77.89364,-149.56888 z" />
      <path
         id="path30"
         style="font-style:normal;font-variant:normal;font-weight:normal;font-stretch:normal;font-size:335.139px;font-family:Times;-inkscape-font-specification:Times;stroke-width:0.264583"
         d="m 569.34012,280.73165 q 23.07354,0 40.4196,16.03693 17.34606,15.87328 17.34606,45.16522 H 523.19305 q 1.63642,37.96496 17.18242,55.31102 15.546,17.34606 36.81947,17.34606 17.18242,0 28.96465,-9.00031 11.78223,-9.00032 21.7644,-25.52817 l 5.72747,1.96371 q -6.70932,20.78254 -25.20088,38.45589 -18.32791,17.67335 -45.00158,17.67335 -30.76471,0 -47.61984,-23.23718 -16.6915,-23.23718 -16.6915,-53.51097 0,-32.89206 19.47341,-56.7838 19.47341,-23.89175 50.72905,-23.89175 z m -9.49124,11.94587 q -18.6552,0 -28.47373,16.52786 -5.23654,8.83667 -7.52753,22.25532 h 69.05696 q -1.80006,-16.36421 -6.2184,-24.38267 -8.01846,-14.40051 -26.8373,-14.40051 z m 7.36389,-11.94587 z" />
      <path
         id="path32"
         style="font-style:normal;font-variant:normal;font-weight:normal;font-stretch:normal;font-size:335.139px;font-family:Times;-inkscape-font-specification:Times;stroke-width:0.264583"
         d="m 632.53178,283.84085 h 69.05696 v 5.07291 q -8.18211,0.16364 -12.10952,1.47278 -7.52753,2.12734 -7.52753,8.34574 0,2.29099 0.81821,4.74562 0.81821,2.29099 2.94556,7.03661 l 38.29225,84.93025 30.76471,-85.58482 q 0.49093,-1.30913 1.47278,-5.89111 1.14549,-4.58198 1.14549,-6.2184 0,-4.25469 -2.94556,-6.2184 -2.94555,-1.9637 -7.52753,-2.29099 l -5.07291,-0.32728 v -5.07291 h 45.00158 v 5.07291 q -6.70933,0.81821 -10.14581,4.58198 -3.27284,3.76376 -5.72747,10.47309 l -51.54726,136.47751 q -13.41865,35.34669 -25.69181,51.21997 -12.27316,15.87328 -31.092,15.87328 -9.16396,0 -17.18242,-4.58197 -8.01846,-4.58198 -8.01846,-14.56415 0,-6.54568 4.74562,-10.80038 4.90926,-4.09105 12.27316,-4.09105 4.25469,0 12.60044,3.1092 8.50939,3.1092 12.10951,3.1092 9.16396,0 19.30977,-21.27347 10.14581,-21.27348 10.14581,-28.47373 0,-1.47278 -0.49093,-3.60012 -0.49092,-2.12735 -1.14549,-3.76377 L 654.62346,309.36902 q -5.56383,-12.10952 -9.81853,-15.87328 -4.09105,-3.92741 -12.27315,-5.07291 z m 77.89363,-3.1092 z" />
      <path
         id="path34"
         style="font-style:italic;font-variant:normal;font-weight:normal;font-stretch:normal;font-size:335.139px;font-family:Times;-inkscape-font-specification:'Times Italic'"
         d="m 816.32768,396.26297 q 0,9.98217 4.58198,17.5097 4.58198,7.3639 15.546,7.3639 23.40082,0 45.00158,-37.63768 20.29162,-35.3467 20.29162,-66.92962 0,-9.98217 -3.27284,-16.52785 -3.27285,-6.54568 -13.25501,-6.54568 -24.8736,0 -48.11078,40.25595 -20.78255,36.00126 -20.78255,62.51128 z m 67.09326,-110.45841 q 12.92773,0 18.32792,6.2184 3.1092,3.60012 4.90926,12.27315 l 18.6552,-67.09325 q 0.81821,-2.78192 0.98185,-4.90927 0.32729,-2.29099 0.32729,-3.92741 0,-6.38204 -2.45464,-8.01846 -2.29099,-1.63642 -6.70932,-1.63642 -2.78192,0 -5.23655,0.16364 -2.29099,0.16364 -6.2184,0.49093 v -5.40019 q 18.49156,-2.45463 51.21998,-8.50939 l 1.47278,1.63642 -0.32729,1.80006 -31.41928,117.65867 -21.43711,77.89363 q -0.65457,2.61828 -1.1455,4.90927 -0.32728,2.12734 -0.32728,3.92741 0,4.41833 2.12734,5.72747 2.29099,1.30914 3.92741,1.30914 4.74562,0 13.41866,-8.34575 5.0729,-5.0729 13.90957,-15.70964 l 3.76377,3.60013 -2.29099,3.43648 q -6.05476,9.00032 -15.546,18.32791 -16.85513,16.52786 -30.27378,16.52786 -4.41834,0 -8.01847,-1.96371 -6.70932,-3.92741 -6.70932,-14.07322 0,-3.43648 0.98185,-10.96402 0.98185,-7.52754 2.94556,-16.36421 -12.4368,18.98248 -27.32823,31.092 -14.72779,12.10951 -32.23749,12.10951 -14.23687,0 -24.8736,-10.14581 -10.63674,-10.14581 -10.63674,-31.25564 0,-35.67397 32.72842,-73.31165 32.56478,-37.47404 63.49313,-37.47404 z" />
      <path
         id="path36"
         style="font-style:italic;font-variant:normal;font-weight:normal;font-stretch:normal;font-size:335.139px;font-family:Times;-inkscape-font-specification:'Times Italic'"
         d="m 947.10349,390.86278 q 0,-36.32854 32.72842,-70.3661 32.40109,-34.03755 66.92959,-34.03755 12.7641,0 20.2916,5.89111 7.5276,5.89112 7.5276,17.5097 0,23.56447 -27.6555,40.4196 -27.4919,16.6915 -57.92933,20.45526 l -9.3276,1.1455 q -2.12735,6.70932 -2.94556,10.80038 -0.81821,3.92741 -0.81821,9.98216 0,14.40051 9.3276,22.41897 9.49124,8.01846 22.419,8.01846 12.2731,0 26.0191,-8.1821 7.8548,-4.74562 22.7462,-17.01878 l 4.2547,3.76377 q -7.3639,9.3276 -21.1098,19.14612 -24.3827,17.50971 -48.92901,17.50971 -17.34606,0 -30.43743,-12.27316 -13.09137,-12.27316 -13.09137,-35.18305 z m 34.85577,-26.34638 q 31.25564,-4.58197 50.89274,-21.92804 19.637,-17.5097 19.637,-34.69212 0,-6.2184 -2.9456,-9.81853 -2.9455,-3.76376 -8.673,-3.76376 -10.6367,0 -20.9462,9.16395 -10.1458,9.00032 -18.3279,20.45526 -8.67302,13.41866 -13.74593,25.69181 -2.78191,6.54569 -5.89111,14.89143 z" />
      <path
         id="path38"
         style="font-style:italic;font-variant:normal;font-weight:normal;font-stretch:normal;font-size:335.139px;font-family:Times;-inkscape-font-specification:'Times Italic'"
         d="m 1289.1412,306.09618 q 0,13.74593 -13.255,36.32854 -7.3639,12.60044 -20.7825,30.60107 -13.7459,18.49156 -28.3101,36.49219 -23.0735,28.47372 -27.1646,28.47372 -1.8,0 -2.291,-1.47277 -0.4909,-1.47278 -1.3091,-9.98217 l -9.6549,-101.94903 -67.9115,111.27663 q -0.4909,0.98185 -1.3091,1.30913 -0.6546,0.32729 -1.4728,0.32729 l -2.291,-0.49093 -0.3272,-1.47278 -1.9638,-40.41959 q -0.6545,-13.5823 -1.9637,-27.9828 -1.1455,-14.56415 -2.2909,-25.20088 -3.4365,-29.61922 -7.3639,-36.32855 -3.7638,-6.70933 -14.0733,-6.70933 -1.9637,0 -3.9274,0.16365 -1.9637,0 -4.091,0.32728 v -4.74562 q 6.7093,-1.14549 12.7641,-2.45463 6.2184,-1.30914 13.5823,-2.94556 l 15.3823,-3.92741 q 5.5638,0 11.2913,46.638 3.1092,25.52816 5.5638,58.09294 l 64.3114,-101.62174 q 0.6546,-1.30914 1.6364,-2.12735 0.9819,-0.98185 2.291,-0.98185 1.4728,0 1.9637,0.98185 0.4909,0.98186 0.6546,2.94556 l 10.964,118.31323 q 1.1455,-1.47277 18.1643,-23.07353 17.0187,-21.7644 17.837,-23.07354 12.2731,-17.67334 16.3642,-27.32823 2.6182,-6.2184 2.6182,-12.10951 0,-2.29099 -0.6545,-4.25469 -0.6546,-2.12735 -3.1092,-4.41834 l -5.0729,-4.74562 q -2.1274,-2.12735 -3.7638,-4.58198 -1.4728,-2.61827 -1.4728,-6.05476 0,-4.09105 2.7819,-8.34574 2.9456,-4.2547 10.4731,-4.2547 6.0548,0 11.6186,4.90926 5.5638,4.74562 5.5638,15.87329 z" />
    </g>
  </g>
</svg>
